<svg version="1.1" xmlns="http://www.w3.org/2000/svg" viewBox="0 0 5631.9615947253615 3212.8348164467984" width="11263.923189450723" height="6425.669632893597">
  <!-- svg-source:excalidraw -->
  
  <defs>
    <style class="style-fonts">
      @font-face {
        font-family: "Virgil";
        src: url("https://excalidraw.com/Virgil.woff2");
      }
      @font-face {
        font-family: "Cascadia";
        src: url("https://excalidraw.com/Cascadia.woff2");
      }
    </style>
  </defs>
  <rect x="0" y="0" width="5631.9615947253615" height="3212.8348164467984" fill="#ffffff"></rect><g stroke-linecap="round" transform="translate(33 1180.97557013104) rotate(0 71 114)"><path d="M32 0 M32 0 C61.72 -0.46, 92.08 -2.28, 110 0 M32 0 C63.15 1.03, 94.77 1.05, 110 0 M110 0 C131.26 0.3, 140.77 9.06, 142 32 M110 0 C131.57 1.39, 142.83 12.3, 142 32 M142 32 C141.61 85.76, 142.96 136.08, 142 196 M142 32 C142.46 66.73, 143.1 101.87, 142 196 M142 196 C140.92 218.36, 131.3 228.91, 110 228 M142 196 C144.15 219.51, 133.42 227.44, 110 228 M110 228 C91.96 229.98, 73.54 227.44, 32 228 M110 228 C85.49 227.89, 62.7 227.99, 32 228 M32 228 C10.34 228.85, -0.73 218.48, 0 196 M32 228 C11.49 229.57, -1.71 218.82, 0 196 M0 196 C0.51 157.78, 1.73 119.97, 0 32 M0 196 C0.13 153.96, -0.52 109.99, 0 32 M0 32 C-0.73 9.25, 8.84 0.56, 32 0 M0 32 C1.74 9.36, 12.7 -1.25, 32 0" stroke="#000000" stroke-width="1" fill="none"></path></g><g stroke-linecap="round" transform="translate(373 1134.97557013104) rotate(0 92.5 35)"><path d="M17.5 0 M17.5 0 C60.7 -1.29, 107.29 2.06, 167.5 0 M17.5 0 C54.29 1.61, 89.72 0.63, 167.5 0 M167.5 0 C179.41 -1.95, 186.02 4.26, 185 17.5 M167.5 0 C178.56 -0.74, 184.56 6.75, 185 17.5 M185 17.5 C183.17 29.17, 185.12 38.93, 185 52.5 M185 17.5 C185.88 26.94, 184.47 36.95, 185 52.5 M185 52.5 C185.66 64.14, 179.2 68.48, 167.5 70 M185 52.5 C184.63 62.44, 180.82 69.71, 167.5 70 M167.5 70 C121.03 70.27, 75.78 71.77, 17.5 70 M167.5 70 C122.05 70.04, 75.57 70.62, 17.5 70 M17.5 70 C5.26 71.9, -0.66 64.01, 0 52.5 M17.5 70 C7.27 70.42, 1.64 64.48, 0 52.5 M0 52.5 C0.17 44.65, 0.96 34.61, 0 17.5 M0 52.5 C-0.27 41.81, -0.53 32.18, 0 17.5 M0 17.5 C-0.01 7.55, 4.78 0.94, 17.5 0 M0 17.5 C-0.48 4.69, 7.27 -0.9, 17.5 0" stroke="#000000" stroke-width="1" fill="none"></path></g><g transform="translate(431 1156.97557013104) rotate(0 34.5 12)"><text x="34.5" y="17" font-family="Virgil, Segoe UI Emoji" font-size="20px" fill="#000000" text-anchor="middle" style="white-space: pre;" direction="ltr">Laptop</text></g><g stroke-linecap="round" transform="translate(674 1098.97557013104) rotate(0 121.5 43.5)"><path d="M21.75 0 M21.75 0 C86.43 1.94, 149.2 1.35, 221.25 0 M21.75 0 C81.78 -2.29, 142.38 -1.42, 221.25 0 M221.25 0 C235.72 0.04, 241.48 6.93, 243 21.75 M221.25 0 C234.03 1.66, 242.71 7.23, 243 21.75 M243 21.75 C243.04 32.37, 244.54 46.99, 243 65.25 M243 21.75 C242.36 32.06, 242.94 43.8, 243 65.25 M243 65.25 C244.9 79.09, 235.6 88.25, 221.25 87 M243 65.25 C243.42 81.39, 236.07 85.68, 221.25 87 M221.25 87 C178.06 87.56, 132.67 86.66, 21.75 87 M221.25 87 C178.8 85, 137.42 85.83, 21.75 87 M21.75 87 C8.96 85.94, 0.94 79.33, 0 65.25 M21.75 87 C6.1 88.43, -0.9 79.6, 0 65.25 M0 65.25 C-0.06 54.23, -0.92 45.21, 0 21.75 M0 65.25 C0.12 49.63, 0.57 33.74, 0 21.75 M0 21.75 C-1.04 5.72, 7.48 1.34, 21.75 0 M0 21.75 C-1.25 8.97, 5.19 0.46, 21.75 0" stroke="#000000" stroke-width="1" fill="none"></path></g><g transform="translate(763 1129.47557013104) rotate(0 32.5 12)"><text x="32.5" y="17" font-family="Virgil, Segoe UI Emoji" font-size="20px" fill="#000000" text-anchor="middle" style="white-space: pre;" direction="ltr">Sensor</text></g><g stroke-linecap="round" transform="translate(373 972.9755701310402) rotate(0 92.5 36)"><path d="M18 0 M18 0 C69.03 0.24, 121.68 -1.52, 167 0 M18 0 C49.85 1.19, 79.31 -0.3, 167 0 M167 0 C180.36 1.83, 186.64 7.5, 185 18 M167 0 C177.99 1.01, 186.29 4.01, 185 18 M185 18 C184.35 28.59, 185.26 40.15, 185 54 M185 18 C185.39 25.83, 184.34 32.2, 185 54 M185 54 C186 65.74, 180.43 71.03, 167 72 M185 54 C186.27 67.67, 178.31 70.61, 167 72 M167 72 C129.06 71.83, 87.62 74.28, 18 72 M167 72 C108.71 72.29, 50.25 72.55, 18 72 M18 72 C6.07 73.41, 0.09 66.79, 0 54 M18 72 C7.43 69.76, -0.46 65.82, 0 54 M0 54 C0.21 40.09, 1.81 29.32, 0 18 M0 54 C-0.85 46.46, 0.8 37.58, 0 18 M0 18 C-0.47 4.1, 5.35 -1.68, 18 0 M0 18 C1.08 7.86, 7.91 -1.27, 18 0" stroke="#000000" stroke-width="1" fill="none"></path></g><g transform="translate(433.5 995.9755701310402) rotate(0 32 12)"><text x="32" y="17" font-family="Virgil, Segoe UI Emoji" font-size="20px" fill="#000000" text-anchor="middle" style="white-space: pre;" direction="ltr">Screen</text></g><g transform="translate(71 1281.97557013104) rotate(0 29.5 13)"><text x="0" y="18" font-family="Virgil, Segoe UI Emoji" font-size="20px" fill="#000000" text-anchor="start" style="white-space: pre;" direction="ltr">Mobile</text></g><g stroke-linecap="round"><g transform="translate(599.0620689655173 1157.9154562984695) rotate(0 35.536089390758974 1.5436361856869212)"><path d="M-0.43 -0.77 C11.33 -0.53, 59.37 1.9, 71.5 2.39 M1.54 1.43 C13.05 1.78, 58.76 3.55, 70.51 3.86" stroke="#000000" stroke-width="1" fill="none"></path></g><g transform="translate(599.0620689655173 1157.9154562984695) rotate(0 35.536089390758974 1.5436361856869212)"><path d="M40.7 13.02 C52.52 11.03, 62.97 7.52, 71.73 2.77 M41.69 12.22 C48.64 11.78, 53.31 9.48, 69.65 4.45" stroke="#000000" stroke-width="1" fill="none"></path></g><g transform="translate(599.0620689655173 1157.9154562984695) rotate(0 35.536089390758974 1.5436361856869212)"><path d="M41.38 -7.49 C53.11 -1.7, 63.3 2.56, 71.73 2.77 M42.38 -8.29 C49.19 -4.51, 53.72 -2.59, 69.65 4.45" stroke="#000000" stroke-width="1" fill="none"></path></g></g><mask></mask><g stroke-linecap="round"><g transform="translate(649.1798576902027 1156.2218054015277) rotate(0 -29.855401492664015 2.492937566555284)"><path d="M1.04 1.03 C-8.87 1.74, -49.89 3.93, -59.97 4.47 M0.13 0.52 C-9.87 0.85, -50.77 1.7, -60.75 2.56" stroke="#000000" stroke-width="1" fill="none"></path></g><g transform="translate(649.1798576902027 1156.2218054015277) rotate(0 -29.855401492664015 2.492937566555284)"><path d="M-31.38 -8.51 C-39.56 -4.39, -47.1 -2.86, -60.45 4.33 M-33.62 -8.19 C-39.55 -6.3, -46.1 -4.39, -61.36 1.95" stroke="#000000" stroke-width="1" fill="none"></path></g><g transform="translate(649.1798576902027 1156.2218054015277) rotate(0 -29.855401492664015 2.492937566555284)"><path d="M-30.39 11.98 C-38.86 10.8, -46.65 7.01, -60.45 4.33 M-32.63 12.31 C-38.69 9.6, -45.46 6.91, -61.36 1.95" stroke="#000000" stroke-width="1" fill="none"></path></g></g><mask></mask><g stroke-linecap="round" transform="translate(10 862.9755701310402) rotate(0 98.5 64)"><path d="M32 0 M32 0 C85.25 0.11, 136.87 0.46, 165 0 M32 0 C69.37 -1.41, 106.21 -1.94, 165 0 M165 0 C185.68 0.97, 197.14 10.81, 197 32 M165 0 C188.1 2.22, 196.26 9.49, 197 32 M197 32 C196.21 49.49, 196.35 67.52, 197 96 M197 32 C196.08 54.3, 195.98 76.71, 197 96 M197 96 C196.7 115.88, 184.77 126.83, 165 128 M197 96 C195.83 119.15, 186.29 125.95, 165 128 M165 128 C127.77 125.85, 86.33 127.66, 32 128 M165 128 C124.57 127.8, 83.63 126.47, 32 128 M32 128 C9.63 127.67, 1.13 116.66, 0 96 M32 128 C11.15 126.17, -1.27 117.87, 0 96 M0 96 C-1.05 77.09, -1.1 55.1, 0 32 M0 96 C-0.87 72.18, 0.14 47.91, 0 32 M0 32 C0.45 10.52, 11.75 0.71, 32 0 M0 32 C-1.02 8.54, 11.45 1.41, 32 0" stroke="#000000" stroke-width="1" fill="none"></path></g><g transform="translate(22 913.9755701310402) rotate(0 86.5 12)"><text x="86.5" y="17" font-family="Virgil, Segoe UI Emoji" font-size="20px" fill="#000000" text-anchor="middle" style="white-space: pre;" direction="ltr">Server/Database</text></g><g stroke-linecap="round"><g transform="translate(352.96190476190475 1081.3522329965076) rotate(0 -69.7124907618878 -52.944768537355245)"><path d="M0.02 0.98 C-23.16 -16.41, -115.43 -87.2, -138.57 -105 M-1.43 0.44 C-24.81 -17.24, -116.41 -89.35, -139.44 -106.87" stroke="#000000" stroke-width="1" fill="none"></path></g><g transform="translate(352.96190476190475 1081.3522329965076) rotate(0 -69.7124907618878 -52.944768537355245)"><path d="M-109.25 -97.49 C-119.86 -101.05, -131.08 -102.12, -141.3 -108.17 M-110.33 -98.22 C-120.55 -100.4, -129.67 -104.7, -139.47 -106.83" stroke="#000000" stroke-width="1" fill="none"></path></g><g transform="translate(352.96190476190475 1081.3522329965076) rotate(0 -69.7124907618878 -52.944768537355245)"><path d="M-121.82 -81.27 C-128 -90.42, -134.89 -97.08, -141.3 -108.17 M-122.91 -82 C-128.84 -89.69, -133.7 -99.5, -139.47 -106.83" stroke="#000000" stroke-width="1" fill="none"></path></g></g><mask></mask><g stroke-linecap="round"><g transform="translate(229.80199794402415 992.2591136110307) rotate(0 60.84256641731361 43.6674380999591)"><path d="M-0.86 -0.22 C19.37 14.49, 99.82 72.59, 120.26 87.5 M0.9 -1.39 C21.6 13.54, 102.46 73.91, 122.54 88.72" stroke="#000000" stroke-width="1" fill="none"></path></g><g transform="translate(229.80199794402415 992.2591136110307) rotate(0 60.84256641731361 43.6674380999591)"><path d="M93.42 78.79 C98.69 83.28, 107.52 82.05, 123.29 89.2 M94.01 79.55 C102.69 83.56, 110.14 85.62, 121.81 89.22" stroke="#000000" stroke-width="1" fill="none"></path></g><g transform="translate(229.80199794402415 992.2591136110307) rotate(0 60.84256641731361 43.6674380999591)"><path d="M105.65 62.31 C108.28 70.13, 114.58 72.31, 123.29 89.2 M106.24 63.08 C111.19 72.06, 114.96 79.08, 121.81 89.22" stroke="#000000" stroke-width="1" fill="none"></path></g></g><mask></mask><g stroke-linecap="round"><g transform="translate(107 997.9755701310402) rotate(0 0.2972694518442154 88.91219536407385)"><path d="M0.53 0.49 C0.76 30.28, 1.33 148.78, 1.23 178.13 M-0.64 -0.3 C-0.54 29.24, -0.09 146.93, 0.4 176.6" stroke="#000000" stroke-width="1" fill="none"></path></g><g transform="translate(107 997.9755701310402) rotate(0 0.2972694518442154 88.91219536407385)"><path d="M-9.31 148.88 C-5.36 154.75, -4.89 166.61, 1.82 177.07 M-9.91 148.95 C-6.78 156.76, -4.68 165.41, 1.15 177.44" stroke="#000000" stroke-width="1" fill="none"></path></g><g transform="translate(107 997.9755701310402) rotate(0 0.2972694518442154 88.91219536407385)"><path d="M11.21 148.69 C9.25 154.71, 3.82 166.62, 1.82 177.07 M10.61 148.77 C7.66 156.47, 3.69 165.18, 1.15 177.44" stroke="#000000" stroke-width="1" fill="none"></path></g></g><mask></mask><g stroke-linecap="round"><g transform="translate(106 1160.97557013104) rotate(0 1.9458047391753581 -87.59530879929662)"><path d="M1.15 -0.29 C1.23 -29.43, 0.96 -145.61, 1.27 -174.9 M0.29 -1.49 C0.69 -30.41, 3.18 -144.35, 3.6 -173.31" stroke="#000000" stroke-width="1" fill="none"></path></g><g transform="translate(106 1160.97557013104) rotate(0 1.9458047391753581 -87.59530879929662)"><path d="M12.86 -146.15 C9.95 -153.51, 4.48 -166.66, 4.07 -174.53 M14.18 -144.91 C10.66 -153.8, 7.59 -162.67, 2.66 -173.95" stroke="#000000" stroke-width="1" fill="none"></path></g><g transform="translate(106 1160.97557013104) rotate(0 1.9458047391753581 -87.59530879929662)"><path d="M-7.66 -146.53 C-3.06 -153.95, -1.03 -166.95, 4.07 -174.53 M-6.34 -145.29 C-3.61 -154.21, -0.43 -162.96, 2.66 -173.95" stroke="#000000" stroke-width="1" fill="none"></path></g></g><mask></mask><g stroke-linecap="round"><g transform="translate(207 1253.97557013104) rotate(0 67.08078071116688 -36.53695299525795)"><path d="M-0.49 -0.92 C21.92 -13.3, 112.12 -62.4, 134.65 -74.28 M1.45 1.2 C23.79 -11.07, 112.12 -60.78, 134.31 -73.32" stroke="#000000" stroke-width="1" fill="none"></path></g><g transform="translate(207 1253.97557013104) rotate(0 67.08078071116688 -36.53695299525795)"><path d="M113.25 -48.63 C119.1 -55.64, 128.68 -63.29, 133.26 -73.72 M114.25 -51.41 C121.63 -59.33, 129.22 -68.55, 134.64 -74.04" stroke="#000000" stroke-width="1" fill="none"></path></g><g transform="translate(207 1253.97557013104) rotate(0 67.08078071116688 -36.53695299525795)"><path d="M103.17 -66.5 C112.2 -67.84, 124.95 -69.86, 133.26 -73.72 M104.18 -69.29 C115.53 -70.29, 127.03 -72.57, 134.64 -74.04" stroke="#000000" stroke-width="1" fill="none"></path></g></g><mask></mask><g mask="url(#mask-J6WvgHBIzeRA9MXzgRj-B)" stroke-linecap="round"><g transform="translate(346.91873092275887 1182.6140167215804) rotate(0 -77.54580658906315 41.8932316391506)"><path d="M-0.6 0.92 C-26.54 14.92, -129.6 69.62, -155.33 83.43 M1.29 0.36 C-24.86 14.03, -130.23 67.88, -156.38 81.45" stroke="#000000" stroke-width="1" fill="none"></path></g><g transform="translate(346.91873092275887 1182.6140167215804) rotate(0 -77.54580658906315 41.8932316391506)"><path d="M-134.48 59.09 C-142.36 66.85, -148.48 73.32, -156.1 80.04 M-136.08 59.4 C-141.5 65.11, -147.3 71.29, -156.41 82.12" stroke="#000000" stroke-width="1" fill="none"></path></g><g transform="translate(346.91873092275887 1182.6140167215804) rotate(0 -77.54580658906315 41.8932316391506)"><path d="M-125.09 77.34 C-135.97 79.05, -145.18 79.52, -156.1 80.04 M-126.69 77.65 C-134.5 78.51, -142.78 79.86, -156.41 82.12" stroke="#000000" stroke-width="1" fill="none"></path></g></g><mask id="mask-J6WvgHBIzeRA9MXzgRj-B"><rect x="0" y="0" fill="#fff" width="602.0425404465684" height="1365.7716168568827"></rect><rect x="219.8568261608541" y="1212.1928167892315" fill="#000" width="99" height="24" opacity="1"></rect></mask><g transform="translate(219.85682616085413 1212.1928167892315) rotate(0 49.516098172841595 12.314431571499426)"><text x="49.5" y="17" font-family="Virgil, Segoe UI Emoji" font-size="20px" fill="#000000" text-anchor="middle" style="white-space: pre;" direction="ltr">Bluetooth</text></g><g stroke-linecap="round"><g transform="translate(463 1114.97557013104) rotate(0 -0.33409302692457743 -31.38588569644709)"><path d="M-0.24 0.56 C-0.57 -10.06, -1.49 -52.69, -1.58 -63.34 M1.83 -0.18 C1.31 -10.63, -2 -51.48, -2.5 -61.78" stroke="#000000" stroke-width="1" fill="none"></path></g><g transform="translate(463 1114.97557013104) rotate(0 -0.33409302692457743 -31.38588569644709)"><path d="M10.55 -34.22 C5.56 -42.09, 1.54 -51.85, -1.26 -63.73 M9.64 -33.78 C6.35 -42.91, 3.76 -49.96, -3.14 -61.55" stroke="#000000" stroke-width="1" fill="none"></path></g><g transform="translate(463 1114.97557013104) rotate(0 -0.33409302692457743 -31.38588569644709)"><path d="M-9.93 -32.86 C-8.1 -41.14, -5.29 -51.36, -1.26 -63.73 M-10.83 -32.42 C-8.39 -42, -5.25 -49.44, -3.14 -61.55" stroke="#000000" stroke-width="1" fill="none"></path></g></g><mask></mask><g stroke-linecap="round"><g transform="translate(464.3891849979241 1051.5962597862126) rotate(0 -0.8776270551813923 36.771967357731064)"><path d="M-0.66 -1.05 C-1.18 11.22, -1.87 62, -2.13 74.59 M1.19 1.01 C0.45 13.42, -2.25 60.1, -2.95 72.58" stroke="#000000" stroke-width="1" fill="none"></path></g><g transform="translate(464.3891849979241 1051.5962597862126) rotate(0 -0.8776270551813923 36.771967357731064)"><path d="M-13.34 44.28 C-7.7 55.05, -4.55 66.15, -4.67 72.08 M-10.68 43.38 C-8.49 53.07, -5.57 62.95, -2.72 72.38" stroke="#000000" stroke-width="1" fill="none"></path></g><g transform="translate(464.3891849979241 1051.5962597862126) rotate(0 -0.8776270551813923 36.771967357731064)"><path d="M7.15 45.45 C4.98 55.66, 0.33 66.31, -4.67 72.08 M9.81 44.55 C5.04 53.99, 1.02 63.47, -2.72 72.38" stroke="#000000" stroke-width="1" fill="none"></path></g></g><mask></mask><g stroke-linecap="round" transform="translate(649.4977496544368 348.996862151213) rotate(0 131.5 20)"><path d="M10 0 M10 0 C69.35 0.97, 129.15 2.15, 253 0 M10 0 C65.51 1.26, 121.49 1.06, 253 0 M253 0 C258.81 -1.33, 261.16 2.35, 263 10 M253 0 C260.42 0.54, 261.01 2.83, 263 10 M263 10 C264.71 19.2, 262.7 24.19, 263 30 M263 10 C263.95 17.25, 262.53 23.71, 263 30 M263 30 C263.51 35.54, 260.56 39.62, 253 40 M263 30 C264.09 37.14, 260.34 41.12, 253 40 M253 40 C190.26 39.96, 128.47 38.2, 10 40 M253 40 C198.56 39.46, 144.37 39.19, 10 40 M10 40 C5.26 38.46, 0.08 37.51, 0 30 M10 40 C2.97 40.5, -1.99 37.57, 0 30 M0 30 C1.57 24.9, 1.72 15.19, 0 10 M0 30 C0.44 23.19, -0.35 15.15, 0 10 M0 10 C1.65 4.16, 2.32 0.98, 10 0 M0 10 C0.31 4.06, 1.06 -0.29, 10 0" stroke="#000000" stroke-width="1" fill="none"></path></g><g stroke-linecap="round" transform="translate(565 1138.97557013104) rotate(0 9.5 19.5)"><path d="M4.75 0 M4.75 0 C8.32 -0.16, 10.55 0.45, 14.25 0 M4.75 0 C7.29 0.05, 9.08 -0.18, 14.25 0 M14.25 0 C18.43 1.79, 20.46 2.58, 19 4.75 M14.25 0 C18.75 -0.98, 17.99 3.56, 19 4.75 M19 4.75 C17.97 17.82, 17.75 28.73, 19 34.25 M19 4.75 C17.9 14.54, 18.48 22.81, 19 34.25 M19 34.25 C19.55 36.81, 16.2 38.54, 14.25 39 M19 34.25 C16.79 39.02, 19.53 38.42, 14.25 39 M14.25 39 C11.33 39.04, 7.88 39, 4.75 39 M14.25 39 C10.4 39.15, 7.72 39.11, 4.75 39 M4.75 39 C0.04 40.66, -0.44 38.5, 0 34.25 M4.75 39 C-0.12 38.81, 0.54 35.27, 0 34.25 M0 34.25 C-1.96 27.58, 0.96 21.26, 0 4.75 M0 34.25 C0.6 23.91, -0.16 13.32, 0 4.75 M0 4.75 C0.36 0.08, 3.18 1.34, 4.75 0 M0 4.75 C-0.51 0.25, -0.16 1.77, 4.75 0" stroke="#000000" stroke-width="1" fill="none"></path></g><g stroke-linecap="round" transform="translate(659 1137.97557013104) rotate(0 9.5 19.5)"><path d="M4.75 0 M4.75 0 C6.01 -0.78, 9.35 0.73, 14.25 0 M4.75 0 C6.72 0.23, 8.29 0.24, 14.25 0 M14.25 0 C18.11 0.48, 18.2 2.05, 19 4.75 M14.25 0 C17.83 -1.73, 20.84 3.12, 19 4.75 M19 4.75 C20.37 11.58, 17.15 21.76, 19 34.25 M19 4.75 C19.57 15.91, 19.77 28.24, 19 34.25 M19 34.25 C19.82 36.55, 17.49 40.5, 14.25 39 M19 34.25 C20.68 39.25, 15.82 40.59, 14.25 39 M14.25 39 C10.31 39.92, 7.32 38.81, 4.75 39 M14.25 39 C11.45 39.07, 8.47 39.33, 4.75 39 M4.75 39 C2.71 39.17, 1.3 35.81, 0 34.25 M4.75 39 C2.3 39.31, -1.86 36.92, 0 34.25 M0 34.25 C1.2 24.98, -0.17 13.77, 0 4.75 M0 34.25 C-0.89 26.76, 0.46 16.99, 0 4.75 M0 4.75 C1.12 3.3, 0.96 0.2, 4.75 0 M0 4.75 C-1.69 3.14, 2.56 -0.69, 4.75 0" stroke="#000000" stroke-width="1" fill="none"></path></g><g stroke-linecap="round"><g transform="translate(705.1397399397748 1038.1795380065337) rotate(0 -57.48889935183033 46.95701052276307)"><path d="M-0.82 -1.01 C-19.86 14.66, -96.24 79.24, -115.18 94.92 M0.96 1.07 C-18.13 16.36, -96.66 77.93, -115.93 93.43" stroke="#000000" stroke-width="1" fill="none"></path></g><g transform="translate(705.1397399397748 1038.1795380065337) rotate(0 -57.48889935183033 46.95701052276307)"><path d="M-101.9 68.5 C-101.56 75.29, -108.14 79.83, -117.18 94.44 M-100.18 68.62 C-104 76.1, -110.03 83.49, -115.66 93.31" stroke="#000000" stroke-width="1" fill="none"></path></g><g transform="translate(705.1397399397748 1038.1795380065337) rotate(0 -57.48889935183033 46.95701052276307)"><path d="M-89.15 84.58 C-91.8 87.68, -101.23 88.62, -117.18 94.44 M-87.43 84.7 C-95.06 87.41, -104.83 90.08, -115.66 93.31" stroke="#000000" stroke-width="1" fill="none"></path></g></g><mask></mask><g stroke-linecap="round"><g transform="translate(701.8452411861628 1035.6130424880846) rotate(0 -16.94242016897877 49.814141474877296)"><path d="M0.08 0.87 C-5.61 17.11, -28.38 81.66, -33.96 98 M-1.34 0.28 C-6.7 16.65, -26.34 83.25, -31.86 99.34" stroke="#000000" stroke-width="1" fill="none"></path></g><g transform="translate(701.8452411861628 1035.6130424880846) rotate(0 -16.94242016897877 49.814141474877296)"><path d="M-31.71 67.43 C-33.22 77.8, -31.33 87.57, -32.98 98.61 M-32.82 68.52 C-32.28 77.39, -32.26 84.59, -31.8 98.35" stroke="#000000" stroke-width="1" fill="none"></path></g><g transform="translate(701.8452411861628 1035.6130424880846) rotate(0 -16.94242016897877 49.814141474877296)"><path d="M-12.14 73.6 C-19.85 82.04, -24.13 89.87, -32.98 98.61 M-13.25 74.7 C-17.43 82.1, -22.14 87.8, -31.8 98.35" stroke="#000000" stroke-width="1" fill="none"></path></g></g><mask></mask><g transform="translate(712 999.9755701310402) rotate(0 76.5 13)"><text x="0" y="18" font-family="Virgil, Segoe UI Emoji" font-size="20px" fill="#000000" text-anchor="start" style="white-space: pre;" direction="ltr">Mysterious Chip</text></g><g stroke-linecap="round" transform="translate(354 938.9755701310402) rotate(0 109.00000000000003 140)"><path d="M32 0 M32 0 C78.12 0.03, 121.48 2.3, 186 0 M32 0 C79.72 -0.76, 129.52 0.47, 186 0 M186 0 C208.72 1.07, 216.5 12.3, 218 32 M186 0 C209.4 -1.85, 219.09 11.55, 218 32 M218 32 C216.89 100.46, 218.37 169.93, 218 248 M218 32 C217.77 106.8, 217.78 181.86, 218 248 M218 248 C219.29 270.56, 206.67 279.12, 186 280 M218 248 C216.16 269.71, 206.41 280.91, 186 280 M186 280 C145.47 282.69, 107.64 281.54, 32 280 M186 280 C139.87 278.19, 95.79 279.39, 32 280 M32 280 C9.93 281.34, -0.72 270.26, 0 248 M32 280 C10.65 281.48, 2.06 267.32, 0 248 M0 248 C-1.08 188.35, -2.95 128.05, 0 32 M0 248 C-0.15 199.44, -0.31 150.84, 0 32 M0 32 C0.78 11.3, 10.25 -0.44, 32 0 M0 32 C-1.75 8.59, 8.59 1.82, 32 0" stroke="#000000" stroke-width="1" fill="none"></path></g><g stroke-linecap="round"><g transform="translate(638 927.9755701310402) rotate(0 -43.56237622649411 36.58410364486743)"><path d="M-0.88 -0.66 C-15.45 11.5, -72.48 60.44, -87.02 72.54 M0.86 1.6 C-13.91 13.97, -73.53 61.98, -87.98 73.83" stroke="#000000" stroke-width="1" fill="none"></path></g><g transform="translate(638 927.9755701310402) rotate(0 -43.56237622649411 36.58410364486743)"><path d="M-73.67 48.06 C-78.59 54.66, -84.75 63.57, -86.16 72.92 M-72.3 48.62 C-78.05 57, -83.65 66.59, -87.29 73.86" stroke="#000000" stroke-width="1" fill="none"></path></g><g transform="translate(638 927.9755701310402) rotate(0 -43.56237622649411 36.58410364486743)"><path d="M-60.74 63.99 C-69.92 65.18, -80.39 68.75, -86.16 72.92 M-59.36 64.56 C-69.96 66.93, -80.44 70.5, -87.29 73.86" stroke="#000000" stroke-width="1" fill="none"></path></g></g><mask></mask><g stroke-linecap="round" transform="translate(632 880.9755701310402) rotate(0 96 40)"><path d="M20 0 M20 0 C71.91 2.64, 120.61 0.07, 172 0 M20 0 C62.18 -0.71, 103.82 -1.26, 172 0 M172 0 C187.14 -1.06, 192.74 7.57, 192 20 M172 0 C183.93 -0.41, 190.4 5.96, 192 20 M192 20 C191.46 33.61, 193.42 45.42, 192 60 M192 20 C192.13 30.46, 190.82 39.65, 192 60 M192 60 C193.31 73.91, 186.88 78.43, 172 80 M192 60 C192.12 72.45, 184.67 78.74, 172 80 M172 80 C128.18 80.53, 84.37 78.29, 20 80 M172 80 C122.38 80.73, 74 80.66, 20 80 M20 80 C6.2 80.4, -0.85 71.79, 0 60 M20 80 C7.1 81.57, -1.4 74.91, 0 60 M0 60 C1.01 49.03, 1.04 37.4, 0 20 M0 60 C-0.41 50.66, 0.06 42.95, 0 20 M0 20 C-1.38 4.83, 6.87 0.15, 20 0 M0 20 C2.18 6.09, 8.72 1.6, 20 0" stroke="#000000" stroke-width="1" fill="none"></path></g><g transform="translate(666.5 894.9755701310402) rotate(0 61 24)"><text x="61" y="17" font-family="Virgil, Segoe UI Emoji" font-size="20px" fill="#000000" text-anchor="middle" style="white-space: pre;" direction="ltr">Display the </text><text x="61" y="41" font-family="Virgil, Segoe UI Emoji" font-size="20px" fill="#000000" text-anchor="middle" style="white-space: pre;" direction="ltr">game.....</text></g><g transform="translate(738.9263210830081 358.8540050083559) rotate(0 41.5 13)"><text x="0" y="18" font-family="Virgil, Segoe UI Emoji" font-size="20px" fill="#000000" text-anchor="start" style="white-space: pre;" direction="ltr">Firebase</text></g><g stroke-linecap="round" transform="translate(648.1088607655481 401.53257643692734) rotate(0 131 21.5)"><path d="M10.75 0 M10.75 0 C91.88 -1.1, 172.67 -1, 251.25 0 M10.75 0 C69.29 -0.87, 126.92 -0.41, 251.25 0 M251.25 0 C256.78 -1.89, 260.67 4.28, 262 10.75 M251.25 0 C258.11 1.54, 261.62 2.18, 262 10.75 M262 10.75 C259.94 19.68, 262.99 27.03, 262 32.25 M262 10.75 C262.88 14.99, 262.25 21.49, 262 32.25 M262 32.25 C263.21 39.06, 258.33 44.93, 251.25 43 M262 32.25 C261.88 37.63, 260 42.17, 251.25 43 M251.25 43 C158.63 40.64, 66.97 43.29, 10.75 43 M251.25 43 C181.95 42.9, 113.57 43.37, 10.75 43 M10.75 43 C1.8 44.99, -1.69 41.21, 0 32.25 M10.75 43 C1.76 42.55, -2.01 41.12, 0 32.25 M0 32.25 C-1.03 27.57, 1.19 22.45, 0 10.75 M0 32.25 C-0.04 25.19, -0.55 19, 0 10.75 M0 10.75 C-1.34 2.15, 2.63 -0.27, 10.75 0 M0 10.75 C-0.56 4.95, 4.32 1.76, 10.75 0" stroke="#000000" stroke-width="1" fill="none"></path></g><g transform="translate(720.6088607655481 410.03257643692734) rotate(0 58.5 12)"><text x="58.5" y="17" font-family="Virgil, Segoe UI Emoji" font-size="20px" fill="#000000" text-anchor="middle" style="white-space: pre;" direction="ltr">AWS Amplify</text></g><g stroke-linecap="round" transform="translate(646.6802893369763 460.104005008356) rotate(0 130 22.857142857142833)"><path d="M11.43 0 M11.43 0 C65.16 1.27, 120.24 1.55, 248.57 0 M11.43 0 C85.66 -2.33, 159.55 -2.29, 248.57 0 M248.57 0 C255.3 0.65, 259.09 5.62, 260 11.43 M248.57 0 C257.21 -0.62, 260.83 2.21, 260 11.43 M260 11.43 C259 16.76, 260.88 22.47, 260 34.29 M260 11.43 C260.55 15.44, 260.06 20.82, 260 34.29 M260 34.29 C259.46 43.32, 254.54 43.79, 248.57 45.71 M260 34.29 C258.16 43.3, 254.06 44.65, 248.57 45.71 M248.57 45.71 C193.98 47.31, 141.8 46.36, 11.43 45.71 M248.57 45.71 C185.67 45.23, 123.77 45.9, 11.43 45.71 M11.43 45.71 C4.38 44.38, -0.09 41.72, 0 34.29 M11.43 45.71 C4.21 45.72, -0.71 42.03, 0 34.29 M0 34.29 C-1.84 28.55, -2.05 23.81, 0 11.43 M0 34.29 C0.72 25.32, 0.86 16.28, 0 11.43 M0 11.43 C-0.24 3.98, 1.92 -1.18, 11.43 0 M0 11.43 C1.15 2.42, 5.5 -1.22, 11.43 0" stroke="#000000" stroke-width="1" fill="none"></path></g><g stroke-linecap="round" transform="translate(603.8231464798334 324.38971929407023) rotate(0 172.8571428571429 140.71428571428572)"><path d="M32 0 M32 0 C134.59 1.15, 238.85 1.42, 313.71 0 M32 0 C130.83 2.68, 231.1 1.59, 313.71 0 M313.71 0 C334.12 -1.4, 345.58 10.53, 345.71 32 M313.71 0 C336.96 1.35, 346.13 10.73, 345.71 32 M345.71 32 C346.41 86.33, 348.77 139.29, 345.71 249.43 M345.71 32 C348.39 97.64, 347.13 162.12, 345.71 249.43 M345.71 249.43 C345 270.24, 335.99 282.21, 313.71 281.43 M345.71 249.43 C345.33 270.14, 333.38 283.04, 313.71 281.43 M313.71 281.43 C207.48 280.17, 98.68 281.52, 32 281.43 M313.71 281.43 C253.17 283.03, 192.03 282.64, 32 281.43 M32 281.43 C12.54 281.56, 2 271.85, 0 249.43 M32 281.43 C12.38 281.07, -0.85 270.29, 0 249.43 M0 249.43 C1.03 172.49, -0.63 96.78, 0 32 M0 249.43 C-0.12 185.37, 0.29 120.79, 0 32 M0 32 C-1.66 12.38, 12.13 -1.93, 32 0 M0 32 C-0.75 8.87, 9.92 1.82, 32 0" stroke="#000000" stroke-width="1" fill="none"></path></g><g transform="translate(675.2517179084048 472.53257643692746) rotate(0 107.5 13)"><text x="0" y="18" font-family="Virgil, Segoe UI Emoji" font-size="20px" fill="#000000" text-anchor="start" style="white-space: pre;" direction="ltr">Some headless Cms...?</text></g><g transform="translate(722.3945750512619 516.8182907226417) rotate(0 28.5 13)"><text x="0" y="18" font-family="Virgil, Segoe UI Emoji" font-size="20px" fill="#000000" text-anchor="start" style="white-space: pre;" direction="ltr">..........</text></g><g stroke-linecap="round"><g transform="translate(954.0630440890648 453.7630989401084) rotate(0 712.1761353460751 -192.65883857126715)"><path d="M-0.62 -1.03 C82.58 -43.75, 261.34 -192.4, 498.94 -256.62 C736.54 -320.84, 1270.64 -364.53, 1424.97 -386.36 M1.26 1.04 C84.29 -41.52, 260.55 -191.25, 497.81 -255.57 C735.07 -319.89, 1270.78 -362.99, 1424.83 -384.9" stroke="#000000" stroke-width="1" fill="none"></path></g><g transform="translate(954.0630440890648 453.7630989401084) rotate(0 712.1761353460751 -192.65883857126715)"><path d="M1396.27 -372.1 C1403.92 -373.1, 1413.36 -376.88, 1423.17 -384.29 M1398.6 -370.71 C1407.75 -377.01, 1415.64 -380.6, 1425.71 -384.73" stroke="#000000" stroke-width="1" fill="none"></path></g><g transform="translate(954.0630440890648 453.7630989401084) rotate(0 712.1761353460751 -192.65883857126715)"><path d="M1393.95 -392.49 C1402.19 -387.82, 1412.27 -385.95, 1423.17 -384.29 M1396.28 -391.1 C1406.18 -390.57, 1414.85 -387.32, 1425.71 -384.73" stroke="#000000" stroke-width="1" fill="none"></path></g></g><mask></mask><g transform="translate(2699.736025661118 391.9720800639294) rotate(0 444.5 23)"><text x="0" y="32" font-family="Virgil, Segoe UI Emoji" font-size="36px" fill="#000000" text-anchor="start" style="white-space: pre;" direction="ltr">Which BAAS solution we could adopt for project ?</text></g><g transform="translate(1547.0584553521269 392.6064083232676) rotate(0 443.5 23)"><text x="0" y="32" font-family="Virgil, Segoe UI Emoji" font-size="36px" fill="#000000" text-anchor="start" style="white-space: pre;" direction="ltr">Which PAAS solution we could adopt for project ?</text></g><g transform="translate(2845.3046401608917 730.3289913066363) rotate(0 289.5 53.5)"><text x="0" y="24.666666666666664" font-family="Virgil, Segoe UI Emoji" font-size="27.940003926497837px" fill="#000000" text-anchor="start" style="white-space: pre;" direction="ltr">What is the difference between of them ?</text><text x="0" y="60.33333333333333" font-family="Virgil, Segoe UI Emoji" font-size="27.940003926497837px" fill="#000000" text-anchor="start" style="white-space: pre;" direction="ltr"></text><text x="0" y="96" font-family="Virgil, Segoe UI Emoji" font-size="27.940003926497837px" fill="#000000" text-anchor="start" style="white-space: pre;" direction="ltr"></text></g><g transform="translate(4417.624278684987 655.7856200088689) rotate(0 297.5 18.5)"><text x="0" y="26" font-family="Virgil, Segoe UI Emoji" font-size="28.68297359825399px" fill="#000000" text-anchor="start" style="white-space: pre;" direction="ltr">What is the difference between of them ?</text></g><g stroke-linecap="round" transform="translate(2610.6979573465296 365.93938782639225) rotate(0 553.2408324126284 48.18554381448155)"><path d="M24.09 0 M24.09 0 C436.17 -2.23, 849.15 -2.1, 1082.39 0 M24.09 0 C408.03 -2.8, 791.6 -2.87, 1082.39 0 M1082.39 0 C1098.59 -1.02, 1104.87 7.69, 1106.48 24.09 M1082.39 0 C1096.29 -2.29, 1104.86 10.04, 1106.48 24.09 M1106.48 24.09 C1106.23 38.84, 1106.38 58.22, 1106.48 72.28 M1106.48 24.09 C1105.34 40.7, 1105.43 57.85, 1106.48 72.28 M1106.48 72.28 C1105.88 88.08, 1097.9 96, 1082.39 96.37 M1106.48 72.28 C1107.05 89.46, 1099.73 97.58, 1082.39 96.37 M1082.39 96.37 C849.41 95.65, 616.15 97.14, 24.09 96.37 M1082.39 96.37 C707.36 100.12, 332.38 100.16, 24.09 96.37 M24.09 96.37 C6.94 95.99, 1.08 87.73, 0 72.28 M24.09 96.37 C8.53 94.83, 0.54 88.03, 0 72.28 M0 72.28 C0.87 53.2, 1.03 34.69, 0 24.09 M0 72.28 C0.33 59.88, -0.43 48.26, 0 24.09 M0 24.09 C-1.62 9.9, 6.65 -1.81, 24.09 0 M0 24.09 C0.15 5.9, 6.74 -1.76, 24.09 0" stroke="#000000" stroke-width="1" fill="none"></path></g><g stroke-linecap="round" transform="translate(1445.2145272132877 364.74430753940896) rotate(0 553.2408324126286 48.18554381448155)"><path d="M24.09 0 M24.09 0 C361.98 1.99, 698.07 2.79, 1082.39 0 M24.09 0 C259.18 0.78, 493.79 0.61, 1082.39 0 M1082.39 0 C1099.03 -0.01, 1107.06 9.55, 1106.48 24.09 M1082.39 0 C1097.26 2.01, 1106.7 7.45, 1106.48 24.09 M1106.48 24.09 C1107.49 37.97, 1106.4 52.67, 1106.48 72.28 M1106.48 24.09 C1106.29 42.52, 1107.07 61.01, 1106.48 72.28 M1106.48 72.28 C1107.35 89.01, 1097.39 94.56, 1082.39 96.37 M1106.48 72.28 C1104.59 89.24, 1098.57 96.16, 1082.39 96.37 M1082.39 96.37 C809.42 98.28, 535.41 99.09, 24.09 96.37 M1082.39 96.37 C751.07 96.28, 419.64 95.95, 24.09 96.37 M24.09 96.37 C7.82 94.89, 0.3 87.19, 0 72.28 M24.09 96.37 C9.32 96.76, -0.67 89.73, 0 72.28 M0 72.28 C-0.39 54.19, 2.33 39.04, 0 24.09 M0 72.28 C-0.45 61.85, -0.71 52.48, 0 24.09 M0 24.09 C0.15 8.74, 7 -0.24, 24.09 0 M0 24.09 C1.11 7.82, 6.97 0.45, 24.09 0" stroke="#000000" stroke-width="1" fill="none"></path></g><g stroke-linecap="round" transform="translate(4048.8141423959396 357.57504884527134) rotate(0 638.845842757961 53.16059269943463)"><path d="M26.58 0 M26.58 0 C358.39 -3.06, 689.63 -2.6, 1251.11 0 M26.58 0 C307.64 -0.86, 589.3 -0.56, 1251.11 0 M1251.11 0 C1268.47 -1.06, 1276.08 7.59, 1277.69 26.58 M1251.11 0 C1270.9 1.3, 1279.46 10.12, 1277.69 26.58 M1277.69 26.58 C1276.72 42.67, 1277.97 57.1, 1277.69 79.74 M1277.69 26.58 C1277.2 42.47, 1277.17 57.44, 1277.69 79.74 M1277.69 79.74 C1278.44 98.99, 1268.47 108.11, 1251.11 106.32 M1277.69 79.74 C1277.72 99.44, 1270.1 107.91, 1251.11 106.32 M1251.11 106.32 C818.05 107.09, 386.6 107.21, 26.58 106.32 M1251.11 106.32 C833.87 104.59, 416.56 104.17, 26.58 106.32 M26.58 106.32 C10.24 107.02, 1.33 96.71, 0 79.74 M26.58 106.32 C10.27 104.58, 1.35 98.77, 0 79.74 M0 79.74 C1.68 65.61, -0.48 55.49, 0 26.58 M0 79.74 C-0.34 66.98, 0.82 53.98, 0 26.58 M0 26.58 C-0.05 8.51, 9.21 1.72, 26.58 0 M0 26.58 C-1.69 9.58, 7.65 1.53, 26.58 0" stroke="#000000" stroke-width="1" fill="none"></path></g><g transform="translate(2931.4470808338037 2305.4315949222364) rotate(0 196 23)"><text x="0" y="32" font-family="Virgil, Segoe UI Emoji" font-size="36px" fill="#000000" text-anchor="start" style="white-space: pre;" direction="ltr">What is our criteria ?</text></g><g transform="translate(3071.640709454502 2639.044086756089) rotate(0 175.5 23)"><text x="0" y="32" font-family="Virgil, Segoe UI Emoji" font-size="36px" fill="#000000" text-anchor="start" style="white-space: pre;" direction="ltr">Suggested solution </text></g><g stroke-linecap="round" transform="translate(2648.399112614682 565.6994415529316) rotate(0 217.09395248082296 65.09103967548668)"><path d="M32 0 M32 0 C125.47 0.9, 221.54 -0.58, 402.19 0 M32 0 C143.72 -2.08, 255.08 -1.77, 402.19 0 M402.19 0 C421.62 -0.29, 435.32 10.9, 434.19 32 M402.19 0 C423 -0.87, 436.27 9.09, 434.19 32 M434.19 32 C434.5 59.87, 435.24 83.73, 434.19 98.18 M434.19 32 C434.93 48.31, 435.39 65.11, 434.19 98.18 M434.19 98.18 C435.96 119.38, 424.45 131.58, 402.19 130.18 M434.19 98.18 C436.05 120.68, 421.51 130.86, 402.19 130.18 M402.19 130.18 C265.41 130.79, 128.63 130.28, 32 130.18 M402.19 130.18 C320.8 131.66, 239.45 131.29, 32 130.18 M32 130.18 C11.38 128.32, 0.59 118.72, 0 98.18 M32 130.18 C9.58 131.35, -0.01 118.24, 0 98.18 M0 98.18 C-0.46 77.79, 0.56 57.52, 0 32 M0 98.18 C1.11 84.33, 1.31 69.91, 0 32 M0 32 C0.29 11.48, 9.89 -1.13, 32 0 M0 32 C2.14 12.1, 9.68 0.12, 32 0" stroke="#000000" stroke-width="1" fill="none"></path></g><g stroke-linecap="round" transform="translate(1483.9188258763313 764.1285218240378) rotate(0 242.70567212932292 59.60281403652243)"><path d="M29.8 0 M29.8 0 C198.92 -0.17, 369.51 1.66, 455.61 0 M29.8 0 C180.57 -1.43, 331.6 -1.19, 455.61 0 M455.61 0 C477.15 -0.46, 485.69 9.24, 485.41 29.8 M455.61 0 C477.46 -1.54, 484.56 12.04, 485.41 29.8 M485.41 29.8 C484.76 52.1, 484.34 71.06, 485.41 89.4 M485.41 29.8 C485.55 41.55, 484.61 52.78, 485.41 89.4 M485.41 89.4 C486.32 110.64, 475.58 121.15, 455.61 119.21 M485.41 89.4 C486.74 110.04, 477.17 118.67, 455.61 119.21 M455.61 119.21 C316.69 120.09, 178.17 120.82, 29.8 119.21 M455.61 119.21 C367.5 117.33, 278.7 117.33, 29.8 119.21 M29.8 119.21 C10.97 118.72, -1.98 110.75, 0 89.4 M29.8 119.21 C11.6 121.39, -0.89 109.47, 0 89.4 M0 89.4 C-0.5 70.22, 1 49.98, 0 29.8 M0 89.4 C-0.78 75.73, 0.35 62.8, 0 29.8 M0 29.8 C0.51 9.14, 10.12 1.87, 29.8 0 M0 29.8 C-1.66 11, 10.41 0.95, 29.8 0" stroke="#000000" stroke-width="1" fill="none"></path></g><g stroke-linecap="round" transform="translate(2017.7336997529285 764.4156459628623) rotate(0 235.65185625926983 59.03698090695406)"><path d="M29.52 0 M29.52 0 C185.77 0.31, 343.41 1.78, 441.79 0 M29.52 0 C145.2 1.51, 261.31 1.45, 441.79 0 M441.79 0 C462.13 1.24, 472.56 8.04, 471.3 29.52 M441.79 0 C462.37 1.47, 469.23 10.36, 471.3 29.52 M471.3 29.52 C472.12 45.12, 471.01 59.18, 471.3 88.56 M471.3 29.52 C471.01 50.14, 471.98 70.35, 471.3 88.56 M471.3 88.56 C471.17 107.17, 462.2 118, 441.79 118.07 M471.3 88.56 C469.56 107.05, 462.05 118.89, 441.79 118.07 M441.79 118.07 C322.64 118.53, 203.63 117.65, 29.52 118.07 M441.79 118.07 C322.21 118.47, 202.51 118.71, 29.52 118.07 M29.52 118.07 C8.28 116.64, -1.89 108.67, 0 88.56 M29.52 118.07 C9 119.62, 1.53 107.06, 0 88.56 M0 88.56 C0.07 68.32, -0.17 52.86, 0 29.52 M0 88.56 C-0.8 71.54, -1.25 55.67, 0 29.52 M0 29.52 C-0.58 8.98, 10.65 0.92, 29.52 0 M0 29.52 C-1.39 12.04, 10.36 -0.93, 29.52 0" stroke="#000000" stroke-width="1" fill="none"></path></g><g stroke-linecap="round" transform="translate(3205.262112104083 562.5509888513097) rotate(0 217.09395248082296 77.92858275594665)"><path d="M32 0 M32 0 C158.94 -1.86, 284.52 -2.44, 402.19 0 M32 0 C121.38 -1.2, 212.52 -1.13, 402.19 0 M402.19 0 C422.66 1.95, 433.66 9.75, 434.19 32 M402.19 0 C425.55 1.55, 432.83 10.81, 434.19 32 M434.19 32 C434.01 61.78, 433.65 94.08, 434.19 123.86 M434.19 32 C433.88 57.65, 434.4 82.51, 434.19 123.86 M434.19 123.86 C435.05 146.18, 422.13 155.21, 402.19 155.86 M434.19 123.86 C432.7 143.83, 421.7 156.68, 402.19 155.86 M402.19 155.86 C258.13 153.18, 113.47 153.41, 32 155.86 M402.19 155.86 C312.51 155.35, 222.87 154.69, 32 155.86 M32 155.86 C9.25 155.92, 1.14 144.78, 0 123.86 M32 155.86 C8.57 155.76, -0.05 146.09, 0 123.86 M0 123.86 C0.52 97.77, -1.3 74.53, 0 32 M0 123.86 C-0.66 87.85, -0.68 53.23, 0 32 M0 32 C-0.25 10.79, 11.17 -0.09, 32 0 M0 32 C-0.25 9.23, 10.01 1.4, 32 0" stroke="#000000" stroke-width="1" fill="none"></path></g><g stroke-linecap="round"><g transform="translate(603.4088326340598 559.2395838962813) rotate(0 -236.4586526813591 135.78694464553516)"><path d="M-0.47 -1.19 C-79.4 44.24, -394.59 227.12, -473.6 272.76 M1.48 0.8 C-77.57 45.87, -394.88 226.05, -474.4 271.02" stroke="#000000" stroke-width="1" fill="none"></path></g><g transform="translate(603.4088326340598 559.2395838962813) rotate(0 -236.4586526813591 135.78694464553516)"><path d="M-456.92 248.67 C-459.45 253.79, -465.36 261.34, -474.9 271.08 M-455.78 248 C-460.33 255.8, -467.29 262.94, -474.86 270.04" stroke="#000000" stroke-width="1" fill="none"></path></g><g transform="translate(603.4088326340598 559.2395838962813) rotate(0 -236.4586526813591 135.78694464553516)"><path d="M-446.8 266.52 C-452.34 266.32, -461.25 268.6, -474.9 271.08 M-445.66 265.85 C-453.47 268.16, -463.59 269.73, -474.86 270.04" stroke="#000000" stroke-width="1" fill="none"></path></g></g><mask></mask><g transform="translate(3221.7169030001805 630.6617819544059) rotate(0 91.5 35.5)"><text x="0" y="25.5" font-family="Virgil, Segoe UI Emoji" font-size="28px" fill="#000000" text-anchor="start" style="white-space: pre;" direction="ltr">- Pocketbase</text><text x="0" y="61" font-family="Virgil, Segoe UI Emoji" font-size="28px" fill="#000000" text-anchor="start" style="white-space: pre;" direction="ltr">- Superbase</text></g><g transform="translate(2673.786737325142 627.3160419133854) rotate(0 69.5 53.5)"><text x="0" y="24.666666666666664" font-family="Virgil, Segoe UI Emoji" font-size="28px" fill="#000000" text-anchor="start" style="white-space: pre;" direction="ltr">- Firebase</text><text x="0" y="60.33333333333333" font-family="Virgil, Segoe UI Emoji" font-size="28px" fill="#000000" text-anchor="start" style="white-space: pre;" direction="ltr"></text><text x="0" y="96" font-family="Virgil, Segoe UI Emoji" font-size="28px" fill="#000000" text-anchor="start" style="white-space: pre;" direction="ltr"></text></g><g stroke-linecap="round" transform="translate(2801.5986796547813 2385.321502282313) rotate(0 600.5344879661395 72.30252853036268)"><path d="M32 0 M32 0 C457.28 -0.67, 883.66 -1.04, 1169.07 0 M32 0 C435.86 3.56, 838.91 2.96, 1169.07 0 M1169.07 0 C1190.1 1.45, 1199.65 10.21, 1201.07 32 M1169.07 0 C1188.45 -0.57, 1202.86 10.09, 1201.07 32 M1201.07 32 C1201.77 61.89, 1202.88 90.15, 1201.07 112.61 M1201.07 32 C1201.96 61.34, 1202.12 91.37, 1201.07 112.61 M1201.07 112.61 C1202.17 132.4, 1191.93 145.7, 1169.07 144.61 M1201.07 112.61 C1202.59 135.91, 1191.76 145.9, 1169.07 144.61 M1169.07 144.61 C810.27 143.96, 451.68 143.04, 32 144.61 M1169.07 144.61 C926.19 144.98, 682.72 145.3, 32 144.61 M32 144.61 C8.73 146.12, 0.86 132.79, 0 112.61 M32 144.61 C9.11 143.21, -0.56 131.93, 0 112.61 M0 112.61 C-0.1 84.81, 1.37 60.23, 0 32 M0 112.61 C1.27 94.17, 0.77 76.19, 0 32 M0 32 C0.28 11.93, 9.9 0.4, 32 0 M0 32 C-0.38 8.78, 11.31 -0.21, 32 0" stroke="#000000" stroke-width="1" fill="none"></path></g><g stroke-linecap="round" transform="translate(2403.1137687821947 10) rotate(0 617.4982662055972 54.85390689643623)"><path d="M27.43 0 M27.43 0 C421.58 1.85, 817.43 1.93, 1207.57 0 M27.43 0 C342.2 -3.98, 657.71 -3.81, 1207.57 0 M1207.57 0 C1227.18 -0.66, 1235.54 8.42, 1235 27.43 M1207.57 0 C1225.26 -0.48, 1234.1 6.84, 1235 27.43 M1235 27.43 C1236.65 40.68, 1236.29 50.98, 1235 82.28 M1235 27.43 C1234.56 40.03, 1234.44 51.13, 1235 82.28 M1235 82.28 C1233.34 99.87, 1227.77 111.09, 1207.57 109.71 M1235 82.28 C1234.94 101.03, 1226.67 108.03, 1207.57 109.71 M1207.57 109.71 C821.59 111.38, 434.15 112.3, 27.43 109.71 M1207.57 109.71 C843.46 113.68, 479.73 114.17, 27.43 109.71 M27.43 109.71 C10.61 108.14, -0.12 99.96, 0 82.28 M27.43 109.71 C8.73 110.02, -0.44 99.67, 0 82.28 M0 82.28 C2.23 67.71, -1.63 55.61, 0 27.43 M0 82.28 C-0.68 67.95, 0.64 54.11, 0 27.43 M0 27.43 C1.04 9.29, 10.56 0.96, 27.43 0 M0 27.43 C2.27 9.41, 11.02 1.92, 27.43 0" stroke="#000000" stroke-width="1" fill="none"></path></g><g transform="translate(2442.2951308510783 44.51763448265967) rotate(0 580 18)"><text x="0" y="25" font-family="Virgil, Segoe UI Emoji" font-size="28px" fill="#000000" text-anchor="start" style="white-space: pre;" direction="ltr">What would be the best backend (architecture) solution for the Climb Training App?</text></g><g mask="url(#mask-SFVuFk30GSOM9pvLrb2CH)" stroke-linecap="round"><g transform="translate(3059.7618071439892 224.51213611398714) rotate(0 -78.68702074137173 60.46677770097017)"><path d="M-0.6 0.71 C-26.86 20.77, -131.74 100.89, -157.81 120.89 M1.28 0.04 C-25.09 19.73, -132.22 99.44, -158.66 119.21" stroke="#000000" stroke-width="1" fill="none"></path></g><g transform="translate(3059.7618071439892 224.51213611398714) rotate(0 -78.68702074137173 60.46677770097017)"><path d="M-141 94.46 C-145.21 102.54, -150.05 107.7, -160.12 118.43 M-142.41 93.44 C-146.39 100.84, -150.74 108.54, -158.77 118.51" stroke="#000000" stroke-width="1" fill="none"></path></g><g transform="translate(3059.7618071439892 224.51213611398714) rotate(0 -78.68702074137173 60.46677770097017)"><path d="M-128.73 110.91 C-136.39 114.4, -144.62 115.03, -160.12 118.43 M-130.14 109.89 C-137.67 112.7, -145.48 115.75, -158.77 118.51" stroke="#000000" stroke-width="1" fill="none"></path></g></g><mask id="mask-SFVuFk30GSOM9pvLrb2CH"><rect x="0" y="0" fill="#fff" width="3317.770461750306" height="444.55709702722095"></rect><rect x="2942.7574798408305" y="266.53461657060404" fill="#000" width="76" height="36" opacity="1"></rect></mask><g transform="translate(2942.757479840832 266.53461657060404) rotate(0 38.31730656178661 18.444297244353265)"><text x="38" y="25" font-family="Virgil, Segoe UI Emoji" font-size="28px" fill="#000000" text-anchor="middle" style="white-space: pre;" direction="ltr">BAAS</text></g><g mask="url(#mask-IXjq6cUW6c_WH2MCprKLL)" stroke-linecap="round"><g transform="translate(3406.150334204768 213.07228978080718) rotate(0 317.78535819458057 67.39400229240482)"><path d="M-0.45 0.43 C105.66 22.82, 529.87 112.88, 636.02 135.17 M1.52 -0.38 C107.51 21.55, 529.28 110.65, 634.99 133.25" stroke="#000000" stroke-width="1" fill="none"></path></g><g transform="translate(3406.150334204768 213.07228978080718) rotate(0 317.78535819458057 67.39400229240482)"><path d="M606 137.17 C613.24 136.91, 619 136.96, 634.33 133.64 M604.58 136.83 C614.62 135.04, 624.49 133.82, 635.97 134.2" stroke="#000000" stroke-width="1" fill="none"></path></g><g transform="translate(3406.150334204768 213.07228978080718) rotate(0 317.78535819458057 67.39400229240482)"><path d="M610.26 117.09 C616.59 121.79, 621.29 126.81, 634.33 133.64 M608.84 116.76 C617.33 121.66, 625.78 127.09, 635.97 134.2" stroke="#000000" stroke-width="1" fill="none"></path></g></g><mask id="mask-IXjq6cUW6c_WH2MCprKLL"><rect x="0" y="0" fill="#fff" width="4142.326266665684" height="447.86338919963157"></rect><rect x="3628.738300435226" y="262.4678394902194" fill="#000" width="191" height="36" opacity="1"></rect></mask><g transform="translate(3628.738300435226 262.4678394902194) rotate(0 95.19739196412274 17.998452582992627)"><text x="95.5" y="25" font-family="Virgil, Segoe UI Emoji" font-size="28px" fill="#000000" text-anchor="middle" style="white-space: pre;" direction="ltr">Headless CMS</text></g><g stroke-linecap="round" transform="translate(2593.4444315257133 499.09719203520785) rotate(0 564.2672000845198 695.8280977879627)"><path d="M32 0 M32 0 C369.1 1.61, 706.62 2.38, 1096.53 0 M32 0 C390.49 -1.47, 748.75 -1.77, 1096.53 0 M1096.53 0 C1118.58 -1.52, 1127.51 10.02, 1128.53 32 M1096.53 0 C1116.63 -0.39, 1129.09 9.77, 1128.53 32 M1128.53 32 C1128.57 420.96, 1128.98 809.64, 1128.53 1359.66 M1128.53 32 C1124.27 321.92, 1124.3 611.31, 1128.53 1359.66 M1128.53 1359.66 C1127.44 1379.99, 1116.47 1390.1, 1096.53 1391.66 M1128.53 1359.66 C1128.97 1381.54, 1116.72 1390.46, 1096.53 1391.66 M1096.53 1391.66 C872.87 1389.53, 647.47 1388.93, 32 1391.66 M1096.53 1391.66 C679.6 1389.2, 262.06 1388.55, 32 1391.66 M32 1391.66 C10.41 1390.58, -0.51 1379.05, 0 1359.66 M32 1391.66 C11.7 1390.15, -0.99 1381.22, 0 1359.66 M0 1359.66 C2.49 889.63, 2.21 418.68, 0 32 M0 1359.66 C1.02 830.52, 0.74 301.11, 0 32 M0 32 C1.72 11.63, 9.92 1.41, 32 0 M0 32 C0.49 12.81, 11.1 0.71, 32 0" stroke="#000000" stroke-width="1" fill="none"></path></g><g transform="translate(2969.9218293574468 174.80864217211058) rotate(0 211.5 23)"><text x="0" y="32" font-family="Virgil, Segoe UI Emoji" font-size="36px" fill="#000000" text-anchor="start" style="white-space: pre;" direction="ltr">PAAS or BAAS or CMS?</text></g><g transform="translate(2688.9276456458138 577.7860927382574) rotate(0 124.5 23)"><text x="0" y="32" font-family="Virgil, Segoe UI Emoji" font-size="36px" fill="#000000" text-anchor="start" style="white-space: pre;" direction="ltr">Cloud provider</text></g><g transform="translate(3227.1881655012057 573.8866973733718) rotate(0 102 23)"><text x="0" y="32" font-family="Virgil, Segoe UI Emoji" font-size="36px" fill="#000000" text-anchor="start" style="white-space: pre;" direction="ltr">New commer</text></g><g stroke-linecap="round" transform="translate(2633.92347149967 797.1226207344655) rotate(0 523.0555731676952 163.27150204120096)"><path d="M32 0 M32 0 C340.53 -0.69, 650.06 0.15, 1014.11 0 M32 0 C323.93 -0.58, 615.11 -0.19, 1014.11 0 M1014.11 0 C1036.12 1.36, 1044.59 12.35, 1046.11 32 M1014.11 0 C1037.2 0.11, 1044.62 10.44, 1046.11 32 M1046.11 32 C1045.44 85.91, 1044.9 142.19, 1046.11 294.54 M1046.11 32 C1045.95 114.49, 1047.2 194.89, 1046.11 294.54 M1046.11 294.54 C1045.4 315.95, 1036.45 325.58, 1014.11 326.54 M1046.11 294.54 C1046.94 313.96, 1036.02 324.68, 1014.11 326.54 M1014.11 326.54 C745.68 328.37, 478.09 328.1, 32 326.54 M1014.11 326.54 C781.61 327.02, 548.79 327.23, 32 326.54 M32 326.54 C11.2 326.2, -1.32 316.84, 0 294.54 M32 326.54 C10.15 326.91, -1.17 315.63, 0 294.54 M0 294.54 C-0.6 194.3, -1.44 97.4, 0 32 M0 294.54 C1.79 235.08, 1.29 176.5, 0 32 M0 32 C1.89 11.32, 12.39 0.39, 32 0 M0 32 C1.36 8.61, 11.15 0.3, 32 0" stroke="#000000" stroke-width="1" fill="none"></path></g><g stroke-linecap="round" transform="translate(3972.2954300476968 730.2112501633443) rotate(0 316.4680545406136 235.39654524161648)"><path d="M32 0 M32 0 C249.83 0.83, 468.33 0.72, 600.94 0 M32 0 C165.46 -0.17, 298.79 -0.2, 600.94 0 M600.94 0 C621.23 1, 632.04 11.97, 632.94 32 M600.94 0 C621.06 1.3, 634.72 8.5, 632.94 32 M632.94 32 C632.93 121.9, 632.36 213.12, 632.94 438.79 M632.94 32 C633.15 133.19, 632.9 233.82, 632.94 438.79 M632.94 438.79 C631.45 460.36, 622.9 470.02, 600.94 470.79 M632.94 438.79 C633.02 461.78, 622.92 472.82, 600.94 470.79 M600.94 470.79 C390.2 469.14, 180.82 469.94, 32 470.79 M600.94 470.79 C429.46 471.69, 257.22 471.53, 32 470.79 M32 470.79 C10.89 471.41, 1.73 460.04, 0 438.79 M32 470.79 C12.1 468.91, 1.73 459.89, 0 438.79 M0 438.79 C0.46 317.12, 0.23 196.77, 0 32 M0 438.79 C-0.75 277.99, 0 117.58, 0 32 M0 32 C-0.7 11.03, 12.46 -0.18, 32 0 M0 32 C0.16 8.96, 8.94 0.94, 32 0" stroke="#000000" stroke-width="1" fill="none"></path></g><g stroke-linecap="round" transform="translate(4645.301601058936 727.6907944889757) rotate(0 379.07033291245625 235.4782984049321)"><path d="M32 0 M32 0 C198.59 2, 364.66 1.34, 726.14 0 M32 0 C293.02 -1.91, 554.42 -2.46, 726.14 0 M726.14 0 C745.96 -1.08, 758.76 11.4, 758.14 32 M726.14 0 C747.05 -0.76, 758.47 8.68, 758.14 32 M758.14 32 C756.48 163.69, 756.81 294.4, 758.14 438.96 M758.14 32 C757.7 172.58, 758.08 314.59, 758.14 438.96 M758.14 438.96 C756.94 460.12, 749.06 471.54, 726.14 470.96 M758.14 438.96 C760.04 458.08, 745.51 469.07, 726.14 470.96 M726.14 470.96 C559.29 469.72, 392.81 470.12, 32 470.96 M726.14 470.96 C549 468.74, 371.6 468.6, 32 470.96 M32 470.96 C9.87 469.27, 0.82 460.31, 0 438.96 M32 470.96 C8.5 468.77, 0.66 459.7, 0 438.96 M0 438.96 C0.04 306.95, -0.45 175.01, 0 32 M0 438.96 C-0.25 290.88, -0.77 142.58, 0 32 M0 32 C0.42 9.27, 11.22 -1.65, 32 0 M0 32 C0.77 10.54, 10.68 1.65, 32 0" stroke="#000000" stroke-width="1" fill="none"></path></g><g stroke-linecap="round" transform="translate(1393.7206241995461 2958.3837669763734) rotate(0 218.82733722950218 62.36666956839315)"><path d="M31.18 0 M31.18 0 C115.79 -1.08, 200.25 -1.04, 406.47 0 M31.18 0 C158.59 -1.33, 286.21 -1.4, 406.47 0 M406.47 0 C425.73 -0.43, 436.17 9.65, 437.65 31.18 M406.47 0 C425.13 -2.24, 438.75 12.28, 437.65 31.18 M437.65 31.18 C437.45 47.33, 435.55 60.63, 437.65 93.55 M437.65 31.18 C436.71 52.8, 437.58 74.17, 437.65 93.55 M437.65 93.55 C438.84 114.39, 428.43 124.43, 406.47 124.73 M437.65 93.55 C438.86 113.94, 426.88 122.76, 406.47 124.73 M406.47 124.73 C307.54 123.98, 207.43 123.79, 31.18 124.73 M406.47 124.73 C328.65 127.23, 250.93 127.19, 31.18 124.73 M31.18 124.73 C10 124.85, -1.33 114.02, 0 93.55 M31.18 124.73 C12.53 122.6, 1.9 112.21, 0 93.55 M0 93.55 C0.28 71.88, 0.2 49.04, 0 31.18 M0 93.55 C-0.59 79.2, -0.64 64.12, 0 31.18 M0 31.18 C0.02 12.01, 9.5 -0.34, 31.18 0 M0 31.18 C0.68 10.94, 11.53 -1.62, 31.18 0" stroke="#000000" stroke-width="1" fill="none"></path></g><g stroke-linecap="round" transform="translate(2019.7206241995461 2948.3837669763734) rotate(0 218.8273372295023 62.36666956839315)"><path d="M31.18 0 M31.18 0 C123.23 -1.83, 217.93 -1.46, 406.47 0 M31.18 0 C142.45 2.22, 255.32 2.22, 406.47 0 M406.47 0 C428.16 0.44, 437.62 9.64, 437.65 31.18 M406.47 0 C428.33 -0.93, 439.5 9.52, 437.65 31.18 M437.65 31.18 C438.46 50.81, 438.38 66.21, 437.65 93.55 M437.65 31.18 C437.27 53.27, 437.61 72.48, 437.65 93.55 M437.65 93.55 C437.89 115.13, 426.26 126.67, 406.47 124.73 M437.65 93.55 C438.13 115.86, 429.34 124.1, 406.47 124.73 M406.47 124.73 C302.04 126.21, 200.03 126.02, 31.18 124.73 M406.47 124.73 C303.63 125.25, 201.04 124.63, 31.18 124.73 M31.18 124.73 C11.52 123.45, 0.56 116.28, 0 93.55 M31.18 124.73 C10.84 126.1, 1.28 115.31, 0 93.55 M0 93.55 C-0.52 72.67, -0.99 50.32, 0 31.18 M0 93.55 C0.19 76.9, -0.05 60.13, 0 31.18 M0 31.18 C-0.09 10.77, 9.86 -0.52, 31.18 0 M0 31.18 C-2.22 9.44, 9.23 -2.14, 31.18 0" stroke="#000000" stroke-width="1" fill="none"></path></g><g stroke-linecap="round" transform="translate(4053.5542673062064 2959.24177442158) rotate(0 385.11384212208145 47.008044786064374)"><path d="M23.5 0 M23.5 0 C265.79 0.46, 510.23 0.42, 746.72 0 M23.5 0 C236.17 -1.39, 449.31 -1.87, 746.72 0 M746.72 0 C761.65 -0.91, 768.8 6.44, 770.23 23.5 M746.72 0 C761.93 1.35, 771.73 9.4, 770.23 23.5 M770.23 23.5 C770.86 39.75, 767.87 56.55, 770.23 70.51 M770.23 23.5 C770.38 34.78, 770.07 43.73, 770.23 70.51 M770.23 70.51 C771.31 84.41, 761.32 95.52, 746.72 94.02 M770.23 70.51 C772.09 84.79, 761.44 92.49, 746.72 94.02 M746.72 94.02 C564 91.99, 380.73 92, 23.5 94.02 M746.72 94.02 C588.86 96.83, 431.53 96.61, 23.5 94.02 M23.5 94.02 C8.43 93.25, 0.74 88.13, 0 70.51 M23.5 94.02 C8.26 93.81, 0.18 88.28, 0 70.51 M0 70.51 C1.74 54, 1.22 36.85, 0 23.5 M0 70.51 C-0.59 60.11, -0.48 47.65, 0 23.5 M0 23.5 C-1.6 6.07, 6.43 -1.35, 23.5 0 M0 23.5 C0.35 7.43, 6.1 1.14, 23.5 0" stroke="#000000" stroke-width="1" fill="none"></path></g><g stroke-linecap="round" transform="translate(2665.257863965143 2947.695434184693) rotate(0 291.82733722950206 62.366669568393036)"><path d="M31.18 0 M31.18 0 C145.59 -1.26, 259.48 -2.01, 552.47 0 M31.18 0 C217.3 1.34, 403.17 1.69, 552.47 0 M552.47 0 C571.72 -1.34, 582.93 11.32, 583.65 31.18 M552.47 0 C574.87 -1.96, 585.81 8.67, 583.65 31.18 M583.65 31.18 C582.87 57, 583.63 81.42, 583.65 93.55 M583.65 31.18 C583.85 47.24, 582.86 62.82, 583.65 93.55 M583.65 93.55 C583.9 115.8, 574.16 125.79, 552.47 124.73 M583.65 93.55 C582.9 115.62, 573.46 123.46, 552.47 124.73 M552.47 124.73 C423.66 123.26, 294.2 123.75, 31.18 124.73 M552.47 124.73 C440.91 125.3, 330.28 125.19, 31.18 124.73 M31.18 124.73 C9.69 125.24, 2 114.26, 0 93.55 M31.18 124.73 C10.39 126.84, 1.19 113.63, 0 93.55 M0 93.55 C-1.64 78.3, 1.95 64.73, 0 31.18 M0 93.55 C0.82 72.46, -0.24 52.17, 0 31.18 M0 31.18 C1.7 10.59, 9.55 -0.02, 31.18 0 M0 31.18 C-1.94 9.34, 12.33 1.07, 31.18 0" stroke="#000000" stroke-width="1" fill="none"></path></g><g stroke-linecap="round" transform="translate(3365.8006140409916 2955.00849741397) rotate(0 248.83634889793166 62.366669568393036)"><path d="M31.18 0 M31.18 0 C184.39 -1.18, 337.65 0.21, 466.49 0 M31.18 0 C125.7 0.95, 220.21 1.02, 466.49 0 M466.49 0 C489.13 -0.62, 498.34 12.07, 497.67 31.18 M466.49 0 C489.5 -2.05, 498.8 10.59, 497.67 31.18 M497.67 31.18 C498.5 46.01, 499.29 56.9, 497.67 93.55 M497.67 31.18 C496.44 56.03, 496.88 80.67, 497.67 93.55 M497.67 93.55 C496.41 112.97, 487.08 124.3, 466.49 124.73 M497.67 93.55 C499.75 112.86, 489.37 125.78, 466.49 124.73 M466.49 124.73 C299.9 125.69, 132.69 126.3, 31.18 124.73 M466.49 124.73 C366.91 126.18, 266.67 126.33, 31.18 124.73 M31.18 124.73 C10.41 123.12, -0.16 113.16, 0 93.55 M31.18 124.73 C9.52 124.43, -0.41 112.1, 0 93.55 M0 93.55 C1.33 73.5, -0.94 52.62, 0 31.18 M0 93.55 C-1.29 70.49, -0.03 46.15, 0 31.18 M0 31.18 C-0.58 11.07, 9.7 -1.19, 31.18 0 M0 31.18 C-0.25 9.03, 9.42 -2.16, 31.18 0" stroke="#000000" stroke-width="1" fill="none"></path></g><g stroke-linecap="round" transform="translate(2627.90162466356 1528.6719956120673) rotate(0 527.1189851381105 166.05093648977646)"><path d="M32 0 M32 0 C237.78 -3.59, 443.46 -4.55, 1022.24 0 M32 0 C340.89 -3.91, 650.3 -3.7, 1022.24 0 M1022.24 0 C1042.46 0.98, 1055.3 11.9, 1054.24 32 M1022.24 0 C1044.79 -2.06, 1055.89 9.22, 1054.24 32 M1054.24 32 C1054.98 92.19, 1055.79 150.17, 1054.24 300.1 M1054.24 32 C1056.63 123.05, 1056.86 213.25, 1054.24 300.1 M1054.24 300.1 C1055.97 321.28, 1041.82 333.9, 1022.24 332.1 M1054.24 300.1 C1052.39 319.24, 1043.63 332.85, 1022.24 332.1 M1022.24 332.1 C700.14 331.14, 379.04 331.32, 32 332.1 M1022.24 332.1 C755.68 328.99, 488.95 329.2, 32 332.1 M32 332.1 C9.42 330.53, -1.35 321.51, 0 300.1 M32 332.1 C9.9 331.86, -1.63 320.3, 0 300.1 M0 300.1 C-0.56 203.12, 0.59 106.8, 0 32 M0 300.1 C2.09 202.87, 2.08 104.69, 0 32 M0 32 C-1.21 9.56, 11.63 -0.51, 32 0 M0 32 C0.73 9.31, 8.4 -1.99, 32 0" stroke="#000000" stroke-width="1" fill="none"></path></g><g stroke-linecap="round" transform="translate(2631.6886780405584 1173.56716319545) rotate(0 525.2989570526138 156.27460738164064)"><path d="M32 0 M32 0 C265.94 -4.15, 499.57 -4.42, 1018.6 0 M32 0 C375.57 -3.5, 720.08 -3.53, 1018.6 0 M1018.6 0 C1038.38 -1.56, 1050.91 10.82, 1050.6 32 M1018.6 0 C1039.6 -1.5, 1050.91 10.29, 1050.6 32 M1050.6 32 C1049.05 119.42, 1049.57 209.71, 1050.6 280.55 M1050.6 32 C1052.88 122.48, 1053.03 214.11, 1050.6 280.55 M1050.6 280.55 C1051.07 302.81, 1039.27 312.63, 1018.6 312.55 M1050.6 280.55 C1049.43 303.63, 1040.28 313.7, 1018.6 312.55 M1018.6 312.55 C752.67 313.61, 487.87 314.03, 32 312.55 M1018.6 312.55 C643.3 316.14, 268.41 316.07, 32 312.55 M32 312.55 C11.48 311.4, -1.88 302, 0 280.55 M32 312.55 C8.5 313.62, 1.75 303.77, 0 280.55 M0 280.55 C-3.04 182.77, -3.58 84.13, 0 32 M0 280.55 C-0.77 191.81, -0.47 102.74, 0 32 M0 32 C0.86 9.48, 9 0.74, 32 0 M0 32 C1.47 10.75, 9.27 -2.07, 32 0" stroke="#000000" stroke-width="1" fill="none"></path></g><g transform="translate(2658.3700296913075 824.1716978248717) rotate(0 73.5 23)"><text x="0" y="32" font-family="Virgil, Segoe UI Emoji" font-size="36px" fill="#000000" text-anchor="start" style="white-space: pre;" direction="ltr">Firebase</text></g><g transform="translate(2650.1193197930043 1545.191394236248) rotate(0 101.5 23)"><text x="0" y="32" font-family="Virgil, Segoe UI Emoji" font-size="36px" fill="#000000" text-anchor="start" style="white-space: pre;" direction="ltr">Pocketbase</text></g><g transform="translate(2647.424408009777 1186.6018137746796) rotate(0 89.5 23)"><text x="0" y="32" font-family="Virgil, Segoe UI Emoji" font-size="36px" fill="#000000" text-anchor="start" style="white-space: pre;" direction="ltr">Superbase</text></g><g transform="translate(2842.5349764434195 1197.000065426573) rotate(0 246 35.5)"><text x="0" y="25.5" font-family="Virgil, Segoe UI Emoji" font-size="28px" fill="#000000" text-anchor="start" style="white-space: pre;" direction="ltr">( Claim as a Firebase alternative )</text><text x="0" y="61" font-family="Virgil, Segoe UI Emoji" font-size="28px" fill="#000000" text-anchor="start" style="white-space: pre;" direction="ltr"></text></g><g stroke-linecap="round" transform="translate(3926.164659870815 512.8266399896837) rotate(0 762.5732833838988 364.7942075567982)"><path d="M32 0 M32 0 C504.02 -4.43, 974.58 -4.38, 1493.15 0 M32 0 C424.72 5.07, 817.4 4.81, 1493.15 0 M1493.15 0 C1516.23 1.48, 1523.76 9.73, 1525.15 32 M1493.15 0 C1515 2.22, 1527.12 11.12, 1525.15 32 M1525.15 32 C1523.59 189.2, 1524.03 345.98, 1525.15 697.59 M1525.15 32 C1524.53 287.82, 1524.65 543.66, 1525.15 697.59 M1525.15 697.59 C1525.44 719.36, 1515.87 730.47, 1493.15 729.59 M1525.15 697.59 C1525.3 717.91, 1513.43 729.47, 1493.15 729.59 M1493.15 729.59 C1158.71 730.05, 825.06 729.65, 32 729.59 M1493.15 729.59 C1132.85 730.33, 772.85 730.51, 32 729.59 M32 729.59 C12.46 731.28, 0.85 718.01, 0 697.59 M32 729.59 C11.54 727.76, -1.33 716.91, 0 697.59 M0 697.59 C0.39 563.91, 0.85 429.23, 0 32 M0 697.59 C-1.5 508.23, -1.43 318.36, 0 32 M0 32 C-1.79 12.14, 11.98 -0.4, 32 0 M0 32 C-0.13 11.35, 11.38 0.23, 32 0" stroke="#000000" stroke-width="1" fill="none"></path></g><g transform="translate(4156.477069236618 389.6548929317895) rotate(0 509.5 23)"><text x="0" y="32" font-family="Virgil, Segoe UI Emoji" font-size="36px" fill="#000000" text-anchor="start" style="white-space: pre;" direction="ltr">Which Headless CMS solutionwe could adopt for project ?</text></g><g transform="translate(2654.712890086679 936.286636614658) rotate(0 210 77)"><text x="0" y="17.666666666666668" font-family="Virgil, Segoe UI Emoji" font-size="20px" fill="#000000" text-anchor="start" style="white-space: pre;" direction="ltr">- Pay as you go, monthly free usage</text><text x="0" y="43.333333333333336" font-family="Virgil, Segoe UI Emoji" font-size="20px" fill="#000000" text-anchor="start" style="white-space: pre;" direction="ltr">- Scalability</text><text x="0" y="69" font-family="Virgil, Segoe UI Emoji" font-size="20px" fill="#000000" text-anchor="start" style="white-space: pre;" direction="ltr">- Easy to integrate other cloud products.</text><text x="0" y="94.66666666666667" font-family="Virgil, Segoe UI Emoji" font-size="20px" fill="#000000" text-anchor="start" style="white-space: pre;" direction="ltr">- GDPR</text><text x="0" y="120.33333333333334" font-family="Virgil, Segoe UI Emoji" font-size="20px" fill="#000000" text-anchor="start" style="white-space: pre;" direction="ltr">- Realtime data</text><text x="0" y="146" font-family="Virgil, Segoe UI Emoji" font-size="20px" fill="#000000" text-anchor="start" style="white-space: pre;" direction="ltr"></text></g><g transform="translate(4002.239168123071 1002.4502442347673) rotate(0 278 51)"><text x="0" y="18.5" font-family="Virgil, Segoe UI Emoji" font-size="20px" fill="#000000" text-anchor="start" style="white-space: pre;" direction="ltr">- Flexibility of deployment and Scalable </text><text x="0" y="44" font-family="Virgil, Segoe UI Emoji" font-size="20px" fill="#000000" text-anchor="start" style="white-space: pre;" direction="ltr">- Real-time data support (Depends on how we deploy it)</text><text x="0" y="69.5" font-family="Virgil, Segoe UI Emoji" font-size="20px" fill="#000000" text-anchor="start" style="white-space: pre;" direction="ltr">- Dashboard, easy to control the data </text><text x="0" y="95" font-family="Virgil, Segoe UI Emoji" font-size="20px" fill="#000000" text-anchor="start" style="white-space: pre;" direction="ltr"></text></g><g transform="translate(4672.836464391863 941.8338096520397) rotate(0 278 77)"><text x="0" y="17.666666666666668" font-family="Virgil, Segoe UI Emoji" font-size="20px" fill="#000000" text-anchor="start" style="white-space: pre;" direction="ltr">- Flexibility of deployment and Scalable </text><text x="0" y="43.333333333333336" font-family="Virgil, Segoe UI Emoji" font-size="20px" fill="#000000" text-anchor="start" style="white-space: pre;" direction="ltr">- Real-time data support (Depends on how we deploy it)</text><text x="0" y="69" font-family="Virgil, Segoe UI Emoji" font-size="20px" fill="#000000" text-anchor="start" style="white-space: pre;" direction="ltr">- Free deployment option, monthly free usage. (GDPR)</text><text x="0" y="94.66666666666667" font-family="Virgil, Segoe UI Emoji" font-size="20px" fill="#000000" text-anchor="start" style="white-space: pre;" direction="ltr">- Dashboard, easy to control the data </text><text x="0" y="120.33333333333334" font-family="Virgil, Segoe UI Emoji" font-size="20px" fill="#000000" text-anchor="start" style="white-space: pre;" direction="ltr">- Support Flutter,Js, Ios, Andorid</text><text x="0" y="146" font-family="Virgil, Segoe UI Emoji" font-size="20px" fill="#000000" text-anchor="start" style="white-space: pre;" direction="ltr">- Mitigate data is possible</text></g><g transform="translate(4004.8360903181683 1134.5173537531136) rotate(0 196.99999999999977 25.5)"><text x="0" y="18.5" font-family="Virgil, Segoe UI Emoji" font-size="20px" fill="#000000" text-anchor="start" style="white-space: pre;" direction="ltr">- Need to setup deployment, database </text><text x="0" y="44" font-family="Virgil, Segoe UI Emoji" font-size="20px" fill="#000000" text-anchor="start" style="white-space: pre;" direction="ltr">- Host is not free</text></g><g transform="translate(4675.862521179648 1153.5327808815152) rotate(0 197.5 13)"><text x="0" y="18" font-family="Virgil, Segoe UI Emoji" font-size="20px" fill="#000000" text-anchor="start" style="white-space: pre;" direction="ltr">- Need to setup deployment, database </text></g><g transform="translate(3155.5069025304465 939.0198886112969) rotate(0 249.5 38.5)"><text x="0" y="17.666666666666668" font-family="Virgil, Segoe UI Emoji" font-size="20px" fill="#000000" text-anchor="start" style="white-space: pre;" direction="ltr">- Deeply bound with the platform, migration is pain</text><text x="0" y="43.333333333333336" font-family="Virgil, Segoe UI Emoji" font-size="20px" fill="#000000" text-anchor="start" style="white-space: pre;" direction="ltr">- No dashboard to modelling data</text><text x="0" y="69" font-family="Virgil, Segoe UI Emoji" font-size="20px" fill="#000000" text-anchor="start" style="white-space: pre;" direction="ltr"></text></g><g stroke-linecap="round"><g transform="translate(3116.718010148742 944.4258605652842) rotate(0 0.10104881735787785 61.598271518176404)"><path d="M0.78 -1.07 C0.65 19.52, 0.29 103.35, 0.3 124.26 M-0.28 0.99 C-0.62 21.18, -0.63 102.33, -0.49 122.6" stroke="#000000" stroke-width="1" fill="none"></path></g></g><mask></mask><g stroke-linecap="round"><g transform="translate(3124.3109654855098 1316.3433213189655) rotate(0 -0.6955188365718641 62.042357858286266)"><path d="M0.03 0.13 C-0.02 20.66, -0.37 103.2, -0.55 123.87 M-1.41 -0.84 C-1.53 19.75, -1.02 103.94, -1.05 124.93" stroke="#000000" stroke-width="1" fill="none"></path></g></g><mask></mask><g stroke-linecap="round"><g transform="translate(3121.8765406690327 1672.5667416638412) rotate(0 -0.22227249786510583 63.09965162245277)"><path d="M-0.97 0.99 C-1.12 21.9, -0.57 103.6, -0.62 124.39 M0.72 0.47 C0.46 21.63, -0.71 105.16, -1.16 125.73" stroke="#000000" stroke-width="1" fill="none"></path></g></g><mask></mask><g transform="translate(2672.3728154845703 1317.5358674737367) rotate(0 181.5 64)"><text x="0" y="17.6" font-family="Virgil, Segoe UI Emoji" font-size="20px" fill="#000000" text-anchor="start" style="white-space: pre;" direction="ltr">- SQL (Postgres)</text><text x="0" y="43.2" font-family="Virgil, Segoe UI Emoji" font-size="20px" fill="#000000" text-anchor="start" style="white-space: pre;" direction="ltr">- Realtime data</text><text x="0" y="68.80000000000001" font-family="Virgil, Segoe UI Emoji" font-size="20px" fill="#000000" text-anchor="start" style="white-space: pre;" direction="ltr">- Pay as you go, monthly free usage</text><text x="0" y="94.4" font-family="Virgil, Segoe UI Emoji" font-size="20px" fill="#000000" text-anchor="start" style="white-space: pre;" direction="ltr">- GDPR</text><text x="0" y="120" font-family="Virgil, Segoe UI Emoji" font-size="20px" fill="#000000" text-anchor="start" style="white-space: pre;" direction="ltr"></text></g><g transform="translate(2683.830789023119 1682.0947268316281) rotate(0 143.5 38.5)"><text x="0" y="17.666666666666668" font-family="Virgil, Segoe UI Emoji" font-size="20px" fill="#000000" text-anchor="start" style="white-space: pre;" direction="ltr">- Realtime data</text><text x="0" y="43.333333333333336" font-family="Virgil, Segoe UI Emoji" font-size="20px" fill="#000000" text-anchor="start" style="white-space: pre;" direction="ltr">- Easy to use</text><text x="0" y="69" font-family="Virgil, Segoe UI Emoji" font-size="20px" fill="#000000" text-anchor="start" style="white-space: pre;" direction="ltr">- Could deployed in any cloud</text></g><g transform="translate(3158.882079061964 1319.200428460721) rotate(0 213 13)"><text x="0" y="18" font-family="Virgil, Segoe UI Emoji" font-size="20px" fill="#000000" text-anchor="start" style="white-space: pre;" direction="ltr">- SDK only support for Js, Flutter, Python</text></g><g transform="translate(3161.355368233186 1665.2637004042226) rotate(0 169 77)"><text x="0" y="17.666666666666668" font-family="Virgil, Segoe UI Emoji" font-size="20px" fill="#000000" text-anchor="start" style="white-space: pre;" direction="ltr">- Not support serverless </text><text x="0" y="43.333333333333336" font-family="Virgil, Segoe UI Emoji" font-size="20px" fill="#000000" text-anchor="start" style="white-space: pre;" direction="ltr">- Currently, only support </text><text x="0" y="69" font-family="Virgil, Segoe UI Emoji" font-size="20px" fill="#000000" text-anchor="start" style="white-space: pre;" direction="ltr">- Currently, use Sqlite</text><text x="0" y="94.66666666666667" font-family="Virgil, Segoe UI Emoji" font-size="20px" fill="#000000" text-anchor="start" style="white-space: pre;" direction="ltr">- Still under development </text><text x="0" y="120.33333333333334" font-family="Virgil, Segoe UI Emoji" font-size="20px" fill="#000000" text-anchor="start" style="white-space: pre;" direction="ltr">- SDK only support for Js,Flutter</text><text x="0" y="146" font-family="Virgil, Segoe UI Emoji" font-size="20px" fill="#000000" text-anchor="start" style="white-space: pre;" direction="ltr">- Only support scaling in vertically</text></g><g transform="translate(2808.518319363825 1247.7985545471247) rotate(0 40.5 23)"><text x="0" y="32" font-family="Virgil, Segoe UI Emoji" font-size="36px" fill="#000000" text-anchor="start" style="white-space: pre;" direction="ltr">Pros</text></g><g transform="translate(2803.6827297523896 1600.6088851375862) rotate(0 40.5 23)"><text x="0" y="32" font-family="Virgil, Segoe UI Emoji" font-size="36px" fill="#000000" text-anchor="start" style="white-space: pre;" direction="ltr">Pros</text></g><g transform="translate(2791.751327481503 878.8329008913655) rotate(0 40.5 23)"><text x="0" y="32" font-family="Virgil, Segoe UI Emoji" font-size="36px" fill="#000000" text-anchor="start" style="white-space: pre;" direction="ltr">Pros</text></g><g transform="translate(3999.912937100312 948.3911311293334) rotate(0 40.5 23)"><text x="0" y="32" font-family="Virgil, Segoe UI Emoji" font-size="36px" fill="#000000" text-anchor="start" style="white-space: pre;" direction="ltr">Pros</text></g><g transform="translate(4673.860027200948 891.0257273873848) rotate(0 40.5 23)"><text x="0" y="32" font-family="Virgil, Segoe UI Emoji" font-size="36px" fill="#000000" text-anchor="start" style="white-space: pre;" direction="ltr">Pros</text></g><g transform="translate(3992.407193826818 1093.1213567427274) rotate(0 41 23)"><text x="0" y="32" font-family="Virgil, Segoe UI Emoji" font-size="36px" fill="#000000" text-anchor="start" style="white-space: pre;" direction="ltr">Cons</text></g><g transform="translate(4671.5694310454055 1101.7980711005453) rotate(0 41 23)"><text x="0" y="32" font-family="Virgil, Segoe UI Emoji" font-size="36px" fill="#000000" text-anchor="start" style="white-space: pre;" direction="ltr">Cons</text></g><g transform="translate(3350.5010625050318 872.5393377413809) rotate(0 41 23)"><text x="0" y="32" font-family="Virgil, Segoe UI Emoji" font-size="36px" fill="#000000" text-anchor="start" style="white-space: pre;" direction="ltr">Cons</text></g><g transform="translate(3345.5908593222766 1241.678318824057) rotate(0 41 23)"><text x="0" y="32" font-family="Virgil, Segoe UI Emoji" font-size="36px" fill="#000000" text-anchor="start" style="white-space: pre;" direction="ltr">Cons</text></g><g transform="translate(3334.8209954927843 1603.4586985109431) rotate(0 41 23)"><text x="0" y="32" font-family="Virgil, Segoe UI Emoji" font-size="36px" fill="#000000" text-anchor="start" style="white-space: pre;" direction="ltr">Cons</text></g><g stroke-linecap="round" transform="translate(1451.3599422280324 499.34588681811204) rotate(0 547.907859623265 207.6378700074809)"><path d="M32 0 M32 0 C282.19 -3.44, 532.73 -3.7, 1063.82 0 M32 0 C340.2 3.04, 648.95 2.63, 1063.82 0 M1063.82 0 C1086.73 0.05, 1094.43 11.76, 1095.82 32 M1063.82 0 C1086.14 2.3, 1096.79 12.91, 1095.82 32 M1095.82 32 C1096.56 141.94, 1095.74 254.14, 1095.82 383.28 M1095.82 32 C1093.53 130.24, 1093.76 228.43, 1095.82 383.28 M1095.82 383.28 C1095.81 404.71, 1085.26 413.3, 1063.82 415.28 M1095.82 383.28 C1098.04 404.02, 1087.32 413.92, 1063.82 415.28 M1063.82 415.28 C729.46 413.28, 393.29 413.36, 32 415.28 M1063.82 415.28 C822.12 412.35, 581.28 412.83, 32 415.28 M32 415.28 C11.4 414.62, -1.34 404.19, 0 383.28 M32 415.28 C10.55 417.08, 0.48 405.98, 0 383.28 M0 383.28 C0.2 293.84, 0.67 202.15, 0 32 M0 383.28 C1.92 284.48, 1.75 184.59, 0 32 M0 32 C-1.76 12.33, 11.21 0.32, 32 0 M0 32 C0.92 10.24, 8.51 -0.72, 32 0" stroke="#000000" stroke-width="1" fill="none"></path></g><g mask="url(#mask-RVlGAXrt3GrTbuP0D7xvf)" stroke-linecap="round"><g transform="translate(2964.280810035846 206.64051940668503) rotate(0 -367.34526105817304 72.0166676979324)"><path d="M0.19 0.48 C-122.28 24.33, -611.46 119.24, -733.82 143.4 M-1.17 -0.31 C-123.9 23.61, -612.59 120.37, -734.88 144.34" stroke="#000000" stroke-width="1" fill="none"></path></g><g transform="translate(2964.280810035846 206.64051940668503) rotate(0 -367.34526105817304 72.0166676979324)"><path d="M-708.4 128.45 C-720.87 134.19, -727.34 141.43, -736.53 143.68 M-708.31 128.25 C-716.46 132.62, -722.96 136.12, -734.15 143.7" stroke="#000000" stroke-width="1" fill="none"></path></g><g transform="translate(2964.280810035846 206.64051940668503) rotate(0 -367.34526105817304 72.0166676979324)"><path d="M-704.43 148.59 C-718.48 146.62, -726.47 146.14, -736.53 143.68 M-704.34 148.38 C-713.46 147.42, -721.01 145.6, -734.15 143.7" stroke="#000000" stroke-width="1" fill="none"></path></g></g><mask id="mask-RVlGAXrt3GrTbuP0D7xvf"><rect x="0" y="0" fill="#fff" width="3797.873637110735" height="451.1637945660772"></rect><rect x="2549.984396498402" y="255.9021569863811" fill="#000" width="95" height="46" opacity="1"></rect></mask><g transform="translate(2549.9843964984025 255.9021569863811) rotate(0 46.951152479271514 22.755030118236334)"><text x="47.5" y="32" font-family="Virgil, Segoe UI Emoji" font-size="36px" fill="#000000" text-anchor="middle" style="white-space: pre;" direction="ltr">PAAS</text></g><g stroke-linecap="round" transform="translate(1471.4834362375686 521.298789373969) rotate(0 516.8079143358005 90.55572304291022)"><path d="M32 0 M32 0 C365.72 0.12, 698.52 -0.44, 1001.62 0 M32 0 C330.4 3.13, 629.64 2.94, 1001.62 0 M1001.62 0 C1023.37 1.98, 1035.06 11.28, 1033.62 32 M1001.62 0 C1025.19 0.83, 1032.43 11.72, 1033.62 32 M1033.62 32 C1032.33 78.97, 1031.6 123.29, 1033.62 149.11 M1033.62 32 C1032.79 59.12, 1034.04 86.76, 1033.62 149.11 M1033.62 149.11 C1034.79 170.49, 1021.69 180.43, 1001.62 181.11 M1033.62 149.11 C1035.86 169.73, 1020.78 182.96, 1001.62 181.11 M1001.62 181.11 C623.8 180.75, 245.27 180.46, 32 181.11 M1001.62 181.11 C648.41 181.01, 295.75 180.57, 32 181.11 M32 181.11 C10.98 181.86, -1.8 171.91, 0 149.11 M32 181.11 C9.67 181.92, 0.42 171.59, 0 149.11 M0 149.11 C0.55 108.31, -3.06 64.28, 0 32 M0 149.11 C-0.73 124.47, 0.04 98.94, 0 32 M0 32 C0.78 8.92, 12.67 -1.48, 32 0 M0 32 C-1.35 10.21, 8.4 -0.51, 32 0" stroke="#000000" stroke-width="1" fill="none"></path></g><g transform="translate(1500.7539729787113 538.2281432077546) rotate(0 485.0000000000001 91.5)"><text x="0" y="31.75" font-family="Virgil, Segoe UI Emoji" font-size="36px" fill="#000000" text-anchor="start" style="white-space: pre;" direction="ltr">Google =&gt; Google App engine, Cloud run, Cloud function</text><text x="0" y="77.5" font-family="Virgil, Segoe UI Emoji" font-size="36px" fill="#000000" text-anchor="start" style="white-space: pre;" direction="ltr">Azure  =&gt; Azure App Services</text><text x="0" y="123.25" font-family="Virgil, Segoe UI Emoji" font-size="36px" fill="#000000" text-anchor="start" style="white-space: pre;" direction="ltr">AWS =&gt; AWS Amplify</text><text x="0" y="169" font-family="Virgil, Segoe UI Emoji" font-size="36px" fill="#000000" text-anchor="start" style="white-space: pre;" direction="ltr"></text></g><g transform="translate(1652.5948823233864 719.3395892935695) rotate(0 40.5 23)"><text x="0" y="32" font-family="Virgil, Segoe UI Emoji" font-size="36px" fill="#000000" text-anchor="start" style="white-space: pre;" direction="ltr">Pros</text></g><g transform="translate(2191.293952210276 712.8749123766767) rotate(0 41 23)"><text x="0" y="32" font-family="Virgil, Segoe UI Emoji" font-size="36px" fill="#000000" text-anchor="start" style="white-space: pre;" direction="ltr">Cons</text></g><g transform="translate(1520.877466988245 787.5394798684977) rotate(0 188 64)"><text x="0" y="17.6" font-family="Virgil, Segoe UI Emoji" font-size="20px" fill="#000000" text-anchor="start" style="white-space: pre;" direction="ltr">- Easy to manage to scale </text><text x="0" y="43.2" font-family="Virgil, Segoe UI Emoji" font-size="20px" fill="#000000" text-anchor="start" style="white-space: pre;" direction="ltr">- Support varies programming language</text><text x="0" y="68.80000000000001" font-family="Virgil, Segoe UI Emoji" font-size="20px" fill="#000000" text-anchor="start" style="white-space: pre;" direction="ltr">- Pay as you go, monthly free usage</text><text x="0" y="94.4" font-family="Virgil, Segoe UI Emoji" font-size="20px" fill="#000000" text-anchor="start" style="white-space: pre;" direction="ltr"></text><text x="0" y="120" font-family="Virgil, Segoe UI Emoji" font-size="20px" fill="#000000" text-anchor="start" style="white-space: pre;" direction="ltr"></text></g><g transform="translate(2056.521749411163 791.7683376647492) rotate(0 213 64)"><text x="0" y="17.6" font-family="Virgil, Segoe UI Emoji" font-size="20px" fill="#000000" text-anchor="start" style="white-space: pre;" direction="ltr">- Need to integrate database</text><text x="0" y="43.2" font-family="Virgil, Segoe UI Emoji" font-size="20px" fill="#000000" text-anchor="start" style="white-space: pre;" direction="ltr">- Stateless, need to find a way to </text><text x="0" y="68.80000000000001" font-family="Virgil, Segoe UI Emoji" font-size="20px" fill="#000000" text-anchor="start" style="white-space: pre;" direction="ltr">synchronize data from back-end to fronted</text><text x="0" y="94.4" font-family="Virgil, Segoe UI Emoji" font-size="20px" fill="#000000" text-anchor="start" style="white-space: pre;" direction="ltr"></text><text x="0" y="120" font-family="Virgil, Segoe UI Emoji" font-size="20px" fill="#000000" text-anchor="start" style="white-space: pre;" direction="ltr"></text></g><g transform="translate(4208.38073402385 572.34196708222) rotate(0 54.5 23)"><text x="0" y="32" font-family="Virgil, Segoe UI Emoji" font-size="36px" fill="#000000" text-anchor="start" style="white-space: pre;" direction="ltr">Strapi</text></g><g transform="translate(4000.1670779848537 748.6851638988311) rotate(0 193 23)"><text x="0" y="32" font-family="Virgil, Segoe UI Emoji" font-size="36px" fill="#000000" text-anchor="start" style="white-space: pre;" direction="ltr">Strapi (Node.js Base)</text></g><g transform="translate(4671.962592201482 753.3192543241017) rotate(0 193.5 23)"><text x="0" y="32" font-family="Virgil, Segoe UI Emoji" font-size="36px" fill="#000000" text-anchor="start" style="white-space: pre;" direction="ltr">Sanity (Node.js Base)</text></g><g transform="translate(5057.171607479924 567.7882427544718) rotate(0 55 23)"><text x="0" y="32" font-family="Virgil, Segoe UI Emoji" font-size="36px" fill="#000000" text-anchor="start" style="white-space: pre;" direction="ltr">Sanity</text></g><g transform="translate(3998.9902061300454 812.8395708110097) rotate(0 299.5000000000002 64)"><text x="0" y="17.6" font-family="Virgil, Segoe UI Emoji" font-size="20px" fill="#000000" text-anchor="start" style="white-space: pre;" direction="ltr">Depending on how the architecture is designed, </text><text x="0" y="43.2" font-family="Virgil, Segoe UI Emoji" font-size="20px" fill="#000000" text-anchor="start" style="white-space: pre;" direction="ltr">in default, the data is saved locally in SQLite, but it also </text><text x="0" y="68.80000000000001" font-family="Virgil, Segoe UI Emoji" font-size="20px" fill="#000000" text-anchor="start" style="white-space: pre;" direction="ltr">support with the production database.</text><text x="0" y="94.4" font-family="Virgil, Segoe UI Emoji" font-size="20px" fill="#000000" text-anchor="start" style="white-space: pre;" direction="ltr">It gives the developer flexibility to integrate with</text><text x="0" y="120" font-family="Virgil, Segoe UI Emoji" font-size="20px" fill="#000000" text-anchor="start" style="white-space: pre;" direction="ltr">other services and deployment. </text></g><g transform="translate(4676.911644032431 813.8126960500559) rotate(0 344.5 25.5)"><text x="0" y="18.5" font-family="Virgil, Segoe UI Emoji" font-size="20px" fill="#000000" text-anchor="start" style="white-space: pre;" direction="ltr">Allows developers to build custom content solutions with an intuitive </text><text x="0" y="44" font-family="Virgil, Segoe UI Emoji" font-size="20px" fill="#000000" text-anchor="start" style="white-space: pre;" direction="ltr">editing interface.</text></g><g transform="translate(2838.98461815885 2408.1346255783674) rotate(0 575 71.5)"><text x="0" y="24.75" font-family="Virgil, Segoe UI Emoji" font-size="28px" fill="#000000" text-anchor="start" style="white-space: pre;" direction="ltr">- Easy to integrate with the mobile framework (ios,flutter,Andorid,Js)</text><text x="0" y="60.5" font-family="Virgil, Segoe UI Emoji" font-size="28px" fill="#000000" text-anchor="start" style="white-space: pre;" direction="ltr">- Easy to adjust/modelling data and content for the front-end's/Mobile app needs</text><text x="0" y="96.25" font-family="Virgil, Segoe UI Emoji" font-size="28px" fill="#000000" text-anchor="start" style="white-space: pre;" direction="ltr">- GDPR</text><text x="0" y="132" font-family="Virgil, Segoe UI Emoji" font-size="28px" fill="#000000" text-anchor="start" style="white-space: pre;" direction="ltr"></text></g><g stroke-linecap="round"><g transform="translate(1530.701608812914 2039.8271376377693) rotate(0 1900.3233219687268 0.6221472544549442)"><path d="M1.11 1.09 C634.37 1.01, 3167.48 0.21, 3800.41 -0.12 M0.23 0.62 C633.31 0.69, 3166.3 1.47, 3799.76 1.35" stroke="#000000" stroke-width="1" fill="none"></path></g></g><mask></mask><g stroke-linecap="round"><g transform="translate(3111.167216037451 2111.884840094815) rotate(0 -0.3616246242681882 64.74905692005518)"><path d="M0.73 0.01 C0.52 21.62, -0.21 107.61, -0.33 129.24 M-0.35 -1.03 C-0.82 20.78, -1.38 108.5, -1.45 130.53" stroke="#000000" stroke-width="1" fill="none"></path></g><g transform="translate(3111.167216037451 2111.884840094815) rotate(0 -0.3616246242681882 64.74905692005518)"><path d="M-11.55 101.74 C-8.66 112.78, -4 121.63, 0.03 132.53 M-11.03 101.73 C-9.8 110.38, -7.1 117.11, -1.41 131.34" stroke="#000000" stroke-width="1" fill="none"></path></g><g transform="translate(3111.167216037451 2111.884840094815) rotate(0 -0.3616246242681882 64.74905692005518)"><path d="M8.97 101.85 C4.19 112.98, 1.2 121.78, 0.03 132.53 M9.49 101.84 C5.54 110.35, 3.05 117.06, -1.41 131.34" stroke="#000000" stroke-width="1" fill="none"></path></g></g><mask></mask><g stroke-linecap="round"><g transform="translate(3196.780202411249 2548.531186853526) rotate(0 -6.440762324271191 41.56100266381986)"><path d="M-1.01 1.14 C-3.16 15.07, -10.66 69.11, -12.83 82.43 M0.66 0.69 C-1.62 14.34, -11.51 66.9, -13.55 80.41" stroke="#000000" stroke-width="1" fill="none"></path></g><g transform="translate(3196.780202411249 2548.531186853526) rotate(0 -6.440762324271191 41.56100266381986)"><path d="M-16.99 51.62 C-17.2 58.75, -17.81 67.26, -14.97 80.35 M-18.07 51.13 C-16.53 62.08, -14.26 73.36, -12.89 80.26" stroke="#000000" stroke-width="1" fill="none"></path></g><g transform="translate(3196.780202411249 2548.531186853526) rotate(0 -6.440762324271191 41.56100266381986)"><path d="M3.23 55.09 C-3.17 60.98, -10 68.42, -14.97 80.35 M2.15 54.6 C-3.74 64.21, -8.9 74.22, -12.89 80.26" stroke="#000000" stroke-width="1" fill="none"></path></g></g><mask></mask><g transform="translate(1540.4085922974298 2996.7048196967157) rotate(0 73.5 23)"><text x="0" y="32" font-family="Virgil, Segoe UI Emoji" font-size="36px" fill="#000000" text-anchor="start" style="white-space: pre;" direction="ltr">Firebase</text></g><g transform="translate(2158.40859229743 2988.7048196967157) rotate(0 89.5 23)"><text x="0" y="32" font-family="Virgil, Segoe UI Emoji" font-size="36px" fill="#000000" text-anchor="start" style="white-space: pre;" direction="ltr">Superbase</text></g><g stroke-linecap="round"><g transform="translate(3069.0999899058515 2659.832009926453) rotate(0 -686.6524475387358 140.96113261624123)"><path d="M-0.45 -0.81 C-229.32 45.97, -1144.89 234.62, -1373.65 281.77 M1.51 1.37 C-227.52 48.77, -1145.63 235.79, -1374.82 282.74" stroke="#000000" stroke-width="1" fill="none"></path></g><g transform="translate(3069.0999899058515 2659.832009926453) rotate(0 -686.6524475387358 140.96113261624123)"><path d="M-1350.61 266.32 C-1357.76 271.53, -1364.03 273.97, -1376.09 284.57 M-1348.96 267.76 C-1354.52 270.57, -1358.98 273.86, -1374.59 281.78" stroke="#000000" stroke-width="1" fill="none"></path></g><g transform="translate(3069.0999899058515 2659.832009926453) rotate(0 -686.6524475387358 140.96113261624123)"><path d="M-1346.5 286.43 C-1354.94 286.25, -1362.3 283.33, -1376.09 284.57 M-1344.85 287.86 C-1351.05 286.62, -1356.33 285.88, -1374.59 281.78" stroke="#000000" stroke-width="1" fill="none"></path></g></g><mask></mask><g stroke-linecap="round"><g transform="translate(3091.8689443459425 2686.044086756089) rotate(0 -355.29763921819904 130.11099943931004)"><path d="M-0.71 0.07 C-119.13 43.42, -592.49 217.88, -710.57 261.16 M1.13 -0.94 C-117.49 42.56, -593.3 215.7, -711.72 259.3" stroke="#000000" stroke-width="1" fill="none"></path></g><g transform="translate(3091.8689443459425 2686.044086756089) rotate(0 -355.29763921819904 130.11099943931004)"><path d="M-688.65 239.34 C-694.58 247.27, -703.69 250.62, -713.39 259.68 M-689 239.63 C-696.02 247.07, -703.75 251.72, -711.98 258.95" stroke="#000000" stroke-width="1" fill="none"></path></g><g transform="translate(3091.8689443459425 2686.044086756089) rotate(0 -355.29763921819904 130.11099943931004)"><path d="M-681.61 258.61 C-689.8 260.77, -701 258.4, -713.39 259.68 M-681.95 258.91 C-691.34 260.21, -701.32 258.71, -711.98 258.95" stroke="#000000" stroke-width="1" fill="none"></path></g></g><mask></mask><g transform="translate(2709.283498621362 2985.3295501343127) rotate(0 253 23)"><text x="0" y="32" font-family="Virgil, Segoe UI Emoji" font-size="36px" fill="#000000" text-anchor="start" style="white-space: pre;" direction="ltr">Sanity + Hosted on Sanity.io</text></g><g transform="translate(3396.391564843596 2992.6426133635896) rotate(0 229 23)"><text x="0" y="32" font-family="Virgil, Segoe UI Emoji" font-size="36px" fill="#000000" text-anchor="start" style="white-space: pre;" direction="ltr">Pocketbase/vm/serverless</text></g><g transform="translate(4083.6797582668632 2991.102391773421) rotate(0 326.4999999999998 18)"><text x="0" y="25" font-family="Virgil, Segoe UI Emoji" font-size="28px" fill="#000000" text-anchor="start" style="white-space: pre;" direction="ltr">Headless CMS + Cloud serverless +  database</text></g><g transform="translate(4928.772951660897 2989.16337354031) rotate(0 339.5 18)"><text x="0" y="25" font-family="Virgil, Segoe UI Emoji" font-size="28px" fill="#000000" text-anchor="start" style="white-space: pre;" direction="ltr">Headless CMS + VM + (Optional) cloud database</text></g><g stroke-linecap="round"><g transform="translate(3219.591806205379 2687.7910762347624) rotate(0 -107.9817310117578 127.23046911531515)"><path d="M0.84 0.77 C-35.31 42.87, -179.66 211.16, -215.88 253.28 M-0.17 0.13 C-36.58 42.29, -180.58 211.94, -216.81 254.33" stroke="#000000" stroke-width="1" fill="none"></path></g><g transform="translate(3219.591806205379 2687.7910762347624) rotate(0 -107.9817310117578 127.23046911531515)"><path d="M-205.05 226.28 C-211.8 236.28, -215.47 246.53, -215.61 255.62 M-207.27 227 C-208.64 231.83, -211.31 239.08, -216.62 254.29" stroke="#000000" stroke-width="1" fill="none"></path></g><g transform="translate(3219.591806205379 2687.7910762347624) rotate(0 -107.9817310117578 127.23046911531515)"><path d="M-189.43 239.59 C-202.31 244.54, -212.04 249.63, -215.61 255.62 M-191.65 240.3 C-196.29 242.13, -202.32 246.52, -216.62 254.29" stroke="#000000" stroke-width="1" fill="none"></path></g></g><mask></mask><g transform="translate(1399.0117772178062 3100.8348164467984) rotate(0 221 51)"><text x="0" y="18.5" font-family="Virgil, Segoe UI Emoji" font-size="20px" fill="#000000" text-anchor="start" style="white-space: pre;" direction="ltr">Good integration with other cloud product:</text><text x="0" y="44" font-family="Virgil, Segoe UI Emoji" font-size="20px" fill="#000000" text-anchor="start" style="white-space: pre;" direction="ltr">     AI, analytics, A/B test, etc... </text><text x="0" y="69.5" font-family="Virgil, Segoe UI Emoji" font-size="20px" fill="#000000" text-anchor="start" style="white-space: pre;" direction="ltr">Change the data modelling is not handy</text><text x="0" y="95" font-family="Virgil, Segoe UI Emoji" font-size="20px" fill="#000000" text-anchor="start" style="white-space: pre;" direction="ltr">But deeply bound with GCP, migration is pain</text></g><g transform="translate(2038.7416289216405 3097.7786296293175) rotate(0 281 38.5)"><text x="0" y="17.666666666666668" font-family="Virgil, Segoe UI Emoji" font-size="20px" fill="#000000" text-anchor="start" style="white-space: pre;" direction="ltr">SQL, easy-to-manipulate data and modeling in dashboard</text><text x="0" y="43.333333333333336" font-family="Virgil, Segoe UI Emoji" font-size="20px" fill="#000000" text-anchor="start" style="white-space: pre;" direction="ltr">And easy to mirage database but only support</text><text x="0" y="69" font-family="Virgil, Segoe UI Emoji" font-size="20px" fill="#000000" text-anchor="start" style="white-space: pre;" direction="ltr">Flutter, Js &amp; Python</text></g><g transform="translate(2681.819918641103 3097.806177773266) rotate(0 319 38.5)"><text x="0" y="17.666666666666668" font-family="Virgil, Segoe UI Emoji" font-size="20px" fill="#000000" text-anchor="start" style="white-space: pre;" direction="ltr">Intuitive UI dashboard to update data, </text><text x="0" y="43.333333333333336" font-family="Virgil, Segoe UI Emoji" font-size="20px" fill="#000000" text-anchor="start" style="white-space: pre;" direction="ltr">the client can update their data in an easy way and flexibly to</text><text x="0" y="69" font-family="Virgil, Segoe UI Emoji" font-size="20px" fill="#000000" text-anchor="start" style="white-space: pre;" direction="ltr">deploy any other cloud or self-host. </text></g><g transform="translate(3390.423479029121 3105.119241002543) rotate(0 299.5 38.5)"><text x="0" y="17.666666666666668" font-family="Virgil, Segoe UI Emoji" font-size="20px" fill="#000000" text-anchor="start" style="white-space: pre;" direction="ltr">Intuitive UI dashboard to update data, </text><text x="0" y="43.333333333333336" font-family="Virgil, Segoe UI Emoji" font-size="20px" fill="#000000" text-anchor="start" style="white-space: pre;" direction="ltr">Quick and dirty, but only support Js,Flutter at the moment </text><text x="0" y="69" font-family="Virgil, Segoe UI Emoji" font-size="20px" fill="#000000" text-anchor="start" style="white-space: pre;" direction="ltr">and not production ready yet.</text></g><g transform="translate(4146.613130014598 3072.2632492462376) rotate(0 255.5 36)"><text x="0" y="17" font-family="Virgil, Segoe UI Emoji" font-size="18.670981272752098px" fill="#000000" text-anchor="start" style="white-space: pre;" direction="ltr">Intuitive UI dashboard to update data </text><text x="0" y="41" font-family="Virgil, Segoe UI Emoji" font-size="18.670981272752098px" fill="#000000" text-anchor="start" style="white-space: pre;" direction="ltr">can scale horizontally. But it's bit tricky to setup the</text><text x="0" y="65" font-family="Virgil, Segoe UI Emoji" font-size="18.670981272752098px" fill="#000000" text-anchor="start" style="white-space: pre;" direction="ltr">web socket to pushing notification to client side </text></g><g transform="translate(4978.884447584304 3079.8232750101256) rotate(0 277.5 24)"><text x="0" y="17" font-family="Virgil, Segoe UI Emoji" font-size="18.670981272752098px" fill="#000000" text-anchor="start" style="white-space: pre;" direction="ltr">Intuitive UI dashboard to update data </text><text x="0" y="41" font-family="Virgil, Segoe UI Emoji" font-size="18.670981272752098px" fill="#000000" text-anchor="start" style="white-space: pre;" direction="ltr">can scale vertically. But normally VM require money already.</text></g><g stroke-linecap="round"><g transform="translate(3423.1256586499176 2690.0984676601097) rotate(0 383.1061791566399 129.51602950849258)"><path d="M-0.93 -1.06 C126.73 42.19, 639.03 215.69, 767.15 259.15 M0.78 1 C128.2 44.38, 638.58 216.8, 766.37 260.09" stroke="#000000" stroke-width="1" fill="none"></path></g><g transform="translate(3423.1256586499176 2690.0984676601097) rotate(0 383.1061791566399 129.51602950849258)"><path d="M734.61 261.33 C746.46 262.32, 759.4 260.51, 768.12 261.08 M736.29 261.2 C746.01 259.75, 753.78 260.5, 765.69 260.08" stroke="#000000" stroke-width="1" fill="none"></path></g><g transform="translate(3423.1256586499176 2690.0984676601097) rotate(0 383.1061791566399 129.51602950849258)"><path d="M741.19 241.89 C750.36 250.59, 760.67 256.54, 768.12 261.08 M742.87 241.76 C750.74 246.24, 756.52 252.87, 765.69 260.08" stroke="#000000" stroke-width="1" fill="none"></path></g></g><mask></mask><g stroke-linecap="round" transform="translate(4904.382503402671 2956.8845572592045) rotate(0 358.7895456613451 49.20634776443444)"><path d="M24.6 0 M24.6 0 C223.82 2.26, 422.51 1.05, 692.98 0 M24.6 0 C206.31 1.31, 387.27 0.97, 692.98 0 M692.98 0 C709.78 0.42, 718.34 9.29, 717.58 24.6 M692.98 0 C711.32 -0.27, 718.38 6.65, 717.58 24.6 M717.58 24.6 C716.54 40.22, 715.68 56.75, 717.58 73.81 M717.58 24.6 C718.41 37.9, 717.48 51.36, 717.58 73.81 M717.58 73.81 C717.96 92.1, 709 98.56, 692.98 98.41 M717.58 73.81 C716.31 91.48, 708.97 96.22, 692.98 98.41 M692.98 98.41 C511.87 98.29, 332.58 98.45, 24.6 98.41 M692.98 98.41 C555.24 98.13, 418.23 97.96, 24.6 98.41 M24.6 98.41 C9.49 99.86, -0.89 91.96, 0 73.81 M24.6 98.41 C10.03 98.35, 1.94 89, 0 73.81 M0 73.81 C-0.74 62.43, -1.18 46.45, 0 24.6 M0 73.81 C0.29 63.81, 0.03 52.72, 0 24.6 M0 24.6 C0.55 8.19, 8.73 1.43, 24.6 0 M0 24.6 C-1.37 8.97, 7.62 0.59, 24.6 0" stroke="#000000" stroke-width="1" fill="none"></path></g><g stroke-linecap="round"><g transform="translate(3429.9704455781057 2663.2626965373674) rotate(0 802.0076499779359 145.54316029579275)"><path d="M0.49 -0.69 C268.03 47.73, 1337.24 241.91, 1604.73 290.85 M-0.71 1.57 C266.74 50.06, 1336.25 243.52, 1603.89 291.77" stroke="#000000" stroke-width="1" fill="none"></path></g><g transform="translate(3429.9704455781057 2663.2626965373674) rotate(0 802.0076499779359 145.54316029579275)"><path d="M1573.18 297.2 C1579.94 296.89, 1591 295.41, 1602.41 290.69 M1575.15 296.35 C1585.53 294.54, 1597.17 292.22, 1603.9 292.51" stroke="#000000" stroke-width="1" fill="none"></path></g><g transform="translate(3429.9704455781057 2663.2626965373674) rotate(0 802.0076499779359 145.54316029579275)"><path d="M1576.82 277 C1582.71 281.89, 1592.83 285.58, 1602.41 290.69 M1578.79 276.16 C1587.83 281.83, 1598.12 287, 1603.9 292.51" stroke="#000000" stroke-width="1" fill="none"></path></g></g><mask></mask><g stroke-linecap="round"><g transform="translate(3305.6243859529886 2686.044086756089) rotate(0 144.43863079988068 133.5091697015405)"><path d="M-0.77 1.09 C47.55 45.31, 241.39 222.26, 289.65 266.4 M1.03 0.62 C49.26 45.04, 241.18 220.92, 288.98 264.8" stroke="#000000" stroke-width="1" fill="none"></path></g><g transform="translate(3305.6243859529886 2686.044086756089) rotate(0 144.43863079988068 133.5091697015405)"><path d="M263.09 254.21 C270.74 256.13, 277.68 259.98, 288.93 263.8 M262.06 253.89 C270.51 257.3, 280.69 261.55, 288.18 264.72" stroke="#000000" stroke-width="1" fill="none"></path></g><g transform="translate(3305.6243859529886 2686.044086756089) rotate(0 144.43863079988068 133.5091697015405)"><path d="M276.96 239.09 C280.89 245.12, 283.97 253.18, 288.93 263.8 M275.93 238.76 C279.32 247.56, 284.55 257.21, 288.18 264.72" stroke="#000000" stroke-width="1" fill="none"></path></g></g><mask></mask></svg>